<svg width="994" height="656" viewBox="0 0 994 656" fill="none" xmlns="http://www.w3.org/2000/svg">
<g clip-path="url(#clip0_326_1672)">
<path d="M621.71 406.867C639.838 389.129 664.318 447.145 672.788 469.294L689.746 449.828C677.877 435.675 635.055 380.938 670.187 367.073C694.37 357.526 693.823 423.909 692.977 446.114L715.879 419.832C709.963 406.18 681.666 336.269 720.773 333.232C746.971 331.198 726.197 395.909 719.064 416.164L743.433 388.201C752.478 366.349 778.584 308.882 796.238 327.14C821.09 352.827 767.245 383 747.278 392.928L724.023 419.609C744.51 407.425 799.442 377.289 802.665 402.391C807.596 440.848 735.158 428.125 719.399 424.921L694.584 453.395C711.83 448.946 784.5 431.747 779.828 458.809C773.095 497.804 705.032 462.152 692.82 455.41L675.147 475.692C675.249 475.98 675.351 476.25 675.425 476.473C694.89 479.407 765.229 491.722 750.733 514.372C729.995 546.756 683.236 491.703 672.686 478.525L633.532 523.455L629.009 519.508L668.729 473.928C648.967 463.406 596.18 431.821 621.691 406.867H621.71Z" fill="#FF6300"/>
<path d="M715.442 618.246C695.494 618.246 676.057 612.767 668.859 596.338C653.025 560.194 695.476 528.386 723.058 515.292C733.487 510.342 744.418 506.153 754.977 502.104C764.616 498.408 774.591 494.591 784.1 490.208C809.379 478.581 832.113 462.607 851.662 442.743C852.879 441.498 854.699 441.155 856.306 441.842C857.922 442.548 858.915 444.126 858.841 445.882C857.69 473.64 855.749 500.6 844.762 525.229C836.432 543.895 822.659 561.661 801.439 581.145C790.508 591.184 775.686 603.601 758.069 610.575C747.491 614.763 731.304 618.237 715.442 618.237V618.246ZM785.726 493.728C776.095 498.157 766.065 502.002 756.37 505.717C745.876 509.738 735.019 513.899 724.72 518.793C698.401 531.293 657.771 561.364 672.407 594.787C684.517 622.444 736.858 614.819 756.639 606.99C773.671 600.248 788.122 588.119 798.811 578.303C819.632 559.191 833.107 541.834 841.215 523.659C851.922 499.662 853.835 473.101 854.968 445.733C854.968 445.668 854.978 445.501 854.764 445.408C854.569 445.315 854.467 445.426 854.421 445.473C834.537 465.672 811.422 481.915 785.716 493.737L785.726 493.728Z" fill="#FF6300"/>
<path d="M370.212 510.11C352.084 492.372 327.604 550.387 319.134 572.536L302.176 553.071C314.045 538.917 356.867 484.181 321.735 470.315C297.552 460.768 298.099 527.151 298.945 549.356L276.043 523.074C281.959 509.422 310.256 439.511 271.149 436.474C244.951 434.44 265.725 499.151 272.858 519.406L248.489 491.443C239.444 469.591 213.338 412.124 195.684 430.382C170.832 456.069 224.677 486.242 244.644 496.17L267.899 522.851C247.412 510.667 192.48 480.531 189.257 505.633C184.326 544.09 256.764 531.367 272.523 528.163L297.338 556.637C280.092 552.188 207.422 534.989 212.094 562.051C218.827 601.047 286.89 565.394 299.102 558.652L316.775 578.935C316.673 579.223 316.571 579.492 316.497 579.715C297.031 582.649 226.693 594.964 241.189 617.614C261.927 649.998 308.686 594.936 319.236 581.767L358.39 626.697L362.913 622.75L323.193 577.17C342.955 566.648 395.742 535.063 370.231 510.11H370.212Z" fill="#5C4FA1"/>
<path d="M304.897 481.487C300.04 454.008 290.131 427.428 275.848 403.459C274.789 401.685 276.498 399.549 278.476 400.153C304.173 408.028 330.121 416.776 351.025 433.53C369.348 448.222 382.666 468.244 393.643 489C401.75 504.324 408.827 520.529 410.926 537.738C413.851 561.772 406.422 613.5 376.165 618.283C338.256 624.273 319.134 575.591 313.692 546.876C309.597 525.247 308.724 503.163 304.897 481.487V481.487Z" fill="#443D98"/>
<path d="M348.62 38.4663H703.509C713.957 38.4663 722.445 46.9545 722.445 57.4023V637.024C722.445 647.472 713.957 655.96 703.509 655.96H348.62C338.172 655.96 329.684 647.472 329.684 637.024V57.4023C329.684 46.9545 338.172 38.4663 348.62 38.4663Z" fill="#14202E"/>
<path d="M571.617 53.3159H480.512V60.0675H571.617V53.3159Z" fill="#2E3D4C"/>
<path d="M569.248 621.543H482.871V639.086H569.248V621.543Z" fill="#2E3D4C"/>
<path d="M713 78.2791H339.129V610.269H713V78.2791Z" fill="white"/>
<path d="M713 78.2791H339.129V98.5244H713V78.2791Z" fill="#5C4FA1"/>
<path d="M372.367 538.611C380.66 538.611 387.383 531.888 387.383 523.594C387.383 515.301 380.66 508.577 372.367 508.577C364.073 508.577 357.35 515.301 357.35 523.594C357.35 531.888 364.073 538.611 372.367 538.611Z" fill="#FF9654"/>
<path d="M413.87 538.611C422.163 538.611 428.887 531.888 428.887 523.594C428.887 515.301 422.163 508.577 413.87 508.577C405.576 508.577 398.853 515.301 398.853 523.594C398.853 531.888 405.576 538.611 413.87 538.611Z" fill="#FF9654"/>
<path d="M517.288 511.948H437.319V519.712H517.288V511.948Z" fill="#FF9654"/>
<path d="M692.077 548.39H360.052V556.154H692.077V548.39Z" fill="#FF9654"/>
<path d="M692.077 564.252H360.052V572.016H692.077V564.252Z" fill="#FF9654"/>
<path d="M440.022 580.114H360.052V587.878H440.022V580.114Z" fill="#FF9654"/>
<path d="M386.962 173.508C388.874 165.437 383.882 157.345 375.812 155.433C367.742 153.521 359.649 158.513 357.737 166.583C355.825 174.653 360.817 182.745 368.887 184.658C376.957 186.57 385.05 181.578 386.962 173.508Z" fill="#5C4FA1"/>
<path d="M473.426 157.747H393.457V165.511H473.426V157.747Z" fill="#D6D6D6"/>
<path d="M566.212 526.464H437.319V534.228H566.212V526.464Z" fill="#FF9654"/>
<path d="M713 190.307H339.129V433.251H713V190.307Z" fill="#5C4FA1"/>
<path d="M609.321 454.973C597.304 454.973 585.157 449.401 575.619 445.027C563.128 439.297 555.095 423.742 557.714 410.359C559.525 401.082 566.388 393.234 574.783 390.829C575.684 390.569 576.604 390.365 577.523 390.17C578.944 389.863 580.281 389.566 581.554 389.064C586.206 387.226 589.847 382.48 591.296 376.351C592.549 371.076 592.187 365.448 591.843 359.997L591.788 359.086C591.203 349.725 590.924 339.816 594.342 330.724C597.49 322.338 605.291 313.525 615.609 312.745C616.844 312.652 618.088 312.68 619.295 312.698C621.004 312.736 622.62 312.763 624.208 312.485C631.628 311.175 636.355 303.43 640.154 297.208C643.961 290.967 650.081 282.711 658.811 282.841C664.216 282.943 669.491 286.658 671.952 292.1C674.06 296.762 674.218 302.511 672.407 308.287C671.906 309.894 671.256 311.528 670.633 313.107C668.664 318.113 666.798 322.849 668.674 327.251C669.51 329.22 671.023 330.817 672.621 332.498C673.206 333.111 673.791 333.733 674.339 334.365C682.186 343.429 683.273 357.907 676.874 368.039C672.639 374.744 665.804 379.406 659.192 383.919C650.852 389.612 642.977 394.989 640.321 403.988C638.946 408.66 639.29 413.517 639.643 418.652C639.949 423.054 640.274 427.605 639.402 432.026C637.646 440.959 630.95 448.835 621.914 452.568C617.81 454.268 613.575 454.964 609.321 454.964V454.973ZM617.633 314.704C617.002 314.704 616.379 314.723 615.757 314.769C606.331 315.475 599.162 323.657 596.236 331.439C592.967 340.15 593.246 349.809 593.812 358.956L593.868 359.866C594.221 365.457 594.583 371.243 593.264 376.806C591.667 383.576 587.562 388.86 582.297 390.931C580.876 391.488 579.39 391.823 577.95 392.129C577.077 392.324 576.195 392.51 575.341 392.761C567.651 394.962 561.364 402.187 559.692 410.731C557.287 423.045 564.958 437.904 576.455 443.179C589.029 448.946 606.266 456.849 621.125 450.701C629.539 447.228 635.77 439.919 637.396 431.635C638.213 427.475 637.897 423.064 637.6 418.792C637.238 413.703 636.866 408.437 638.352 403.413C641.212 393.717 649.756 387.885 658.022 382.239C664.458 377.846 671.125 373.295 675.128 366.952C681.072 357.545 680.059 344.097 672.779 335.683C672.249 335.071 671.683 334.476 671.125 333.882C669.472 332.145 667.773 330.343 666.789 328.031C664.588 322.858 666.696 317.518 668.729 312.346C669.342 310.795 669.974 309.197 670.457 307.656C672.119 302.362 671.989 297.124 670.085 292.917C667.94 288.172 663.39 284.931 658.755 284.847C651.047 284.764 645.41 292.425 641.853 298.239C637.841 304.814 632.854 312.986 624.533 314.454C622.75 314.769 620.967 314.732 619.23 314.695C618.683 314.686 618.144 314.677 617.605 314.677L617.633 314.704Z" fill="#F9F9FA"/>
<path d="M677.143 270.787C673.373 270.787 670.308 267.722 670.308 263.952C670.308 260.181 673.373 257.116 677.143 257.116C680.914 257.116 683.979 260.181 683.979 263.952C683.979 267.722 680.914 270.787 677.143 270.787ZM677.143 259.141C674.497 259.141 672.333 261.296 672.333 263.952C672.333 266.608 674.487 268.762 677.143 268.762C679.799 268.762 681.954 266.608 681.954 263.952C681.954 261.296 679.799 259.141 677.143 259.141Z" fill="#F9F9FA"/>
<path d="M647.035 234.847C647.035 236.249 645.902 237.382 644.5 237.382C643.098 237.382 641.974 236.249 641.974 234.847C641.974 233.444 643.107 232.311 644.5 232.311C645.893 232.311 647.035 233.444 647.035 234.847Z" fill="#F9F9FA"/>
<path d="M374.976 384.161C376.792 384.161 378.264 382.689 378.264 380.874C378.264 379.058 376.792 377.586 374.976 377.586C373.161 377.586 371.689 379.058 371.689 380.874C371.689 382.689 373.161 384.161 374.976 384.161Z" fill="#F9F9FA"/>
<path d="M676.642 398.834C673.15 398.834 670.318 395.992 670.318 392.51C670.318 389.027 673.159 386.186 676.642 386.186C680.124 386.186 682.966 389.027 682.966 392.51C682.966 395.992 680.124 398.834 676.642 398.834ZM676.642 388.201C674.274 388.201 672.342 390.132 672.342 392.501C672.342 394.869 674.274 396.8 676.642 396.8C679.01 396.8 680.942 394.869 680.942 392.501C680.942 390.132 679.01 388.201 676.642 388.201Z" fill="#F9F9FA"/>
<path d="M470.055 379.945C470.055 379.945 450.488 412.337 444.749 440.347H576.678C576.678 440.347 566.555 391.758 555.086 380.288L470.055 379.954V379.945Z" fill="#483F99"/>
<path d="M466.842 389.473C497.433 388.749 528.368 388.74 558.959 389.473C528.368 390.207 497.433 390.198 466.842 389.473Z" fill="white"/>
<path d="M480.262 390.235C477.893 398.24 472.433 408.4 463.35 409.747C462.05 409.858 460.75 409.784 459.505 409.468C470.232 410.127 476.166 398.491 480.262 390.235Z" fill="white"/>
<path d="M519.74 389.222C520.047 401.797 520.195 415.579 520.232 428.199V428.404L520.084 428.552L509.487 439.214L508.568 440.133V438.833C508.624 422.386 508.689 405.93 509.107 389.482C509.32 397.711 509.422 405.93 509.506 414.158C509.608 422.386 509.59 430.605 509.636 438.833L508.726 438.452L519.387 427.856L519.239 428.199C519.276 415.569 519.424 401.815 519.731 389.222H519.74Z" fill="white"/>
<path d="M549.597 389.473C549.969 399.522 553.377 408.372 565.032 407.444C553.312 410.369 548.037 399.615 549.597 389.473Z" fill="white"/>
<path d="M287.726 138.068H201.572C200.007 138.068 198.739 139.336 198.739 140.901V192.136C198.739 193.701 200.007 194.969 201.572 194.969H287.726C289.29 194.969 290.558 193.701 290.558 192.136V140.901C290.558 139.336 289.29 138.068 287.726 138.068Z" fill="url(#paint0_linear_326_1672)"/>
<path d="M203.206 154.887C203.123 154.887 203.058 154.822 203.058 154.738V143.101C203.058 143.018 203.123 142.953 203.206 142.953H212.01C212.094 142.953 212.159 143.018 212.159 143.101C212.159 143.185 212.094 143.25 212.01 143.25H203.355V154.738C203.355 154.822 203.29 154.887 203.206 154.887Z" fill="#F8B218" stroke="#F8B218" stroke-width="3" stroke-miterlimit="10"/>
<path d="M286.092 154.887C286.008 154.887 285.943 154.822 285.943 154.738V143.25H277.288C277.204 143.25 277.139 143.185 277.139 143.101C277.139 143.018 277.204 142.953 277.288 142.953H286.092C286.175 142.953 286.24 143.018 286.24 143.101V154.738C286.24 154.822 286.175 154.887 286.092 154.887Z" fill="#F8B218" stroke="#F8B218" stroke-width="3" stroke-miterlimit="10"/>
<path d="M212.01 190.084H203.206C203.123 190.084 203.058 190.019 203.058 189.935V178.745C203.058 178.661 203.123 178.596 203.206 178.596C203.29 178.596 203.355 178.661 203.355 178.745V189.787H212.01C212.094 189.787 212.159 189.852 212.159 189.935C212.159 190.019 212.094 190.084 212.01 190.084Z" fill="#F8B218" stroke="#F8B218" stroke-width="3" stroke-miterlimit="10"/>
<path d="M286.092 190.084H277.288C277.204 190.084 277.139 190.019 277.139 189.935C277.139 189.852 277.204 189.787 277.288 189.787H285.943V178.745C285.943 178.661 286.008 178.596 286.092 178.596C286.175 178.596 286.24 178.661 286.24 178.745V189.935C286.24 190.019 286.175 190.084 286.092 190.084V190.084Z" fill="#F8B218" stroke="#F8B218" stroke-width="3" stroke-miterlimit="10"/>
<path d="M244.654 184.177C254.404 184.177 262.308 176.273 262.308 166.523C262.308 156.773 254.404 148.869 244.654 148.869C234.903 148.869 226.999 156.773 226.999 166.523C226.999 176.273 234.903 184.177 244.654 184.177Z" fill="#F8B218"/>
<path d="M237.781 173.869V159.177L251.517 165.186L237.781 173.869Z" fill="white"/>
<path d="M339.129 431.561V457.258C339.129 460.778 342.314 463.638 346.252 463.638H705.886C709.815 463.638 713.009 460.778 713.009 457.258V431.561H339.129Z" fill="#423C98"/>
<path d="M700.212 443.996H520.502C519.74 443.996 519.118 442.873 519.118 441.498C519.118 440.124 519.74 439 520.502 439H700.212C700.973 439 701.596 440.124 701.596 441.498C701.596 442.873 700.973 443.996 700.212 443.996Z" fill="#5C4FA1"/>
<path d="M521.616 443.996H348.713C347.329 443.996 346.215 442.873 346.215 441.498C346.215 440.124 347.338 439 348.713 439H521.616C523 439 524.114 440.124 524.114 441.498C524.114 442.873 522.99 443.996 521.616 443.996Z" fill="#FF9654"/>
<path d="M526.064 441.498C526.064 444.442 523.678 446.829 520.734 446.829C517.79 446.829 515.403 444.442 515.403 441.498C515.403 438.554 517.79 436.167 520.734 436.167C523.678 436.167 526.064 438.554 526.064 441.498Z" fill="#FFFEFE"/>
<path d="M370.351 450.776H372.794V459.115H370.351V450.776ZM365.652 459.115H368.095V450.776H365.652V459.115ZM388.832 450.776V454.147L383.687 450.776V459.115L388.832 455.744V459.115H391.275V450.776H388.832ZM347.171 450.776V459.115H349.614V455.744L354.759 459.115V450.776L349.614 454.147V450.776H347.171Z" fill="#FFFEFE"/>
<path d="M755.924 101.078C755.868 101.255 764.273 104.347 774.693 107.997C785.122 111.647 793.619 114.461 793.684 114.284C793.74 114.108 785.345 111.015 774.916 107.365C764.486 103.716 755.989 100.902 755.933 101.078H755.924Z" stroke="#E59A24" stroke-width="3" stroke-miterlimit="10"/>
<path d="M752.525 81.353C752.553 81.5387 765.963 79.6628 782.484 77.1739C799.006 74.685 812.37 72.5212 812.351 72.3354C812.323 72.1497 798.913 74.0257 782.392 76.5145C765.879 79.0034 752.506 81.1673 752.534 81.353H752.525Z" stroke="#E59A24" stroke-width="3" stroke-miterlimit="10"/>
<path d="M749.544 61.1169C749.665 61.2562 754.364 57.0585 760.038 51.7464C765.712 46.4343 770.207 42.023 770.086 41.8837C769.966 41.7444 765.267 45.9421 759.592 51.2542C753.918 56.5663 749.423 60.9776 749.544 61.1169Z" stroke="#E59A24" stroke-width="3" stroke-miterlimit="10"/>
<path d="M477.606 88.0117C476.64 81.7895 471.03 77.0068 464.92 75.5116C458.809 74.0071 452.327 75.2701 446.402 77.3783C439.752 79.7464 433.381 83.2754 428.58 88.4668C423.779 93.6489 420.677 100.614 421.048 107.672C421.401 114.284 424.698 120.915 422.859 127.277C421.457 132.106 417.371 135.635 413.275 138.542C409.18 141.458 404.741 144.188 401.982 148.395C399.224 152.602 398.769 158.861 402.493 162.232C405.809 165.241 411.762 165.576 413.155 169.829C414.018 172.467 412.551 175.225 411.743 177.872C410.034 183.49 411.353 189.749 414.455 194.737C417.547 199.724 422.265 203.54 427.382 206.429C436.344 211.49 447.516 213.858 456.989 209.818C461.678 207.822 465.663 204.358 468.653 200.234C473.631 193.371 475.86 184.818 476.38 176.358C476.9 167.897 475.822 159.428 474.736 151.014" fill="#101010"/>
<path d="M480.893 188.691C473.092 190.845 464.316 189.099 457.936 184.122C451.556 179.144 447.72 171.064 447.897 162.975C448.064 155.425 451.482 147.726 449.132 140.538C447.516 135.607 443.383 131.762 442 126.766C439.929 119.299 444.442 111.758 448.751 105.322C451.519 101.19 454.342 97.0014 458.196 93.8624C462.05 90.7235 467.158 88.7454 472.015 89.7762" fill="#101010"/>
<path d="M550.266 90.6677C549.848 96.3606 553.609 101.441 557.389 105.712C561.178 109.984 565.394 114.433 566.212 120.079C567.66 130.091 557.863 139.387 559.887 149.296C560.974 154.608 565.32 158.871 566.091 164.238C566.843 169.43 564.057 174.51 560.612 178.457C557.166 182.404 552.959 185.7 549.913 189.963C549.913 189.963 543.561 200.383 524.021 193.715" fill="#101010"/>
<path d="M462.793 99.3789C462.644 94.2154 467.418 90.2313 472.228 88.3368C477.03 86.4423 482.379 85.7365 486.66 82.8483C490.449 80.2944 493.003 76.3103 496.216 73.0599C504.092 65.0732 516.387 61.7671 527.207 64.7203C538.026 67.6735 546.941 76.7654 549.672 87.6496C551.52 95.0048 550.257 103.688 544.462 108.573C537.738 114.238 527.764 112.984 519.146 111.22C510.527 109.455 500.776 107.719 493.579 112.78C489.242 115.835 486.753 120.794 484.097 125.391C481.441 129.988 478.116 134.678 473.101 136.406C468.086 138.133 461.279 135.152 461.075 129.849" fill="#101010"/>
<path d="M483.15 100.438C478.692 100.921 475.34 104.728 475.442 109.214L480.596 225.866C480.809 239.639 500.953 247.384 515.7 247.04C530.596 246.697 531.079 239.388 531.265 226.284C531.581 204.386 531.553 196.167 531.562 196.287C531.562 196.287 550.377 193.121 554.222 168.557C556.135 156.335 555.476 136.313 554.408 119.949C553.451 105.22 543.645 87.1667 528.971 88.7454L483.159 100.428L483.15 100.438Z" fill="#AA6551"/>
<path d="M550.052 136.118C550.117 137.78 548.762 139.201 547.025 139.303C545.288 139.396 543.83 138.133 543.774 136.471C543.709 134.808 545.065 133.378 546.802 133.285C548.539 133.192 549.997 134.455 550.062 136.118H550.052Z" fill="#101010"/>
<path d="M550.86 127.722C550.47 128.131 548.084 126.376 544.694 126.394C541.304 126.367 538.825 128.112 538.453 127.695C538.277 127.509 538.667 126.766 539.753 125.976C540.821 125.187 542.632 124.426 544.75 124.426C546.858 124.426 548.641 125.206 549.662 125.995C550.702 126.794 551.065 127.537 550.87 127.722H550.86Z" fill="#101010"/>
<path d="M518.57 136.712C518.635 138.374 517.279 139.795 515.542 139.897C513.806 139.99 512.348 138.727 512.292 137.065C512.227 135.403 513.583 133.972 515.319 133.88C517.056 133.787 518.514 135.05 518.579 136.712H518.57Z" fill="#101010"/>
<path d="M516.768 129.403C516.378 129.812 513.982 128.057 510.602 128.075C507.212 128.047 504.732 129.793 504.361 129.375C504.185 129.19 504.575 128.447 505.661 127.657C506.729 126.868 508.54 126.106 510.648 126.106C512.756 126.106 514.539 126.887 515.561 127.676C516.601 128.475 516.963 129.218 516.768 129.403V129.403Z" fill="#101010"/>
<path d="M529.12 156.187C529.101 155.992 531.209 155.629 534.618 155.184C535.481 155.091 536.299 154.914 536.447 154.329C536.651 153.707 536.289 152.769 535.862 151.766C535.045 149.677 534.19 147.485 533.29 145.182C529.714 135.811 527.123 128.094 527.504 127.955C527.885 127.815 531.089 135.3 534.664 144.671C535.528 146.983 536.345 149.184 537.134 151.292C537.469 152.277 538.026 153.391 537.589 154.691C537.357 155.342 536.726 155.806 536.169 155.964C535.611 156.131 535.128 156.15 534.701 156.168C531.265 156.363 529.138 156.382 529.12 156.187Z" fill="#263238"/>
<path d="M531.553 196.287C531.553 196.287 515.032 197.393 498.64 187.586C498.64 187.586 506.971 204.451 531.553 202.101V196.287V196.287Z" fill="#724A41"/>
<path d="M518.254 121.157C517.92 122.076 514.539 121.649 510.565 122.141C506.581 122.55 503.377 123.72 502.847 122.893C502.615 122.494 503.172 121.63 504.463 120.739C505.745 119.847 507.797 118.993 510.184 118.723C512.571 118.454 514.753 118.835 516.202 119.42C517.66 120.005 518.403 120.729 518.254 121.166V121.157Z" fill="#101010"/>
<path d="M550.35 120.219C549.672 120.989 547.025 120.191 543.839 120.154C540.654 120.014 537.961 120.674 537.339 119.866C537.069 119.476 537.487 118.705 538.667 117.971C539.828 117.247 541.768 116.652 543.96 116.708C546.143 116.773 548.046 117.47 549.152 118.259C550.275 119.049 550.647 119.847 550.35 120.219Z" fill="#101010"/>
<path d="M466.127 181.178C472.897 182.543 480.262 180.463 485.323 175.763C490.375 171.064 492.994 163.867 492.121 157.023C491.359 150.977 488.1 144.829 490.189 139.108C492.957 131.549 503.562 129.218 506.376 121.677C508.011 117.293 506.543 112.158 508.401 107.867C510.147 103.827 514.391 101.496 518.533 100.001C522.675 98.506 527.114 97.4751 530.587 94.7726C534.06 92.0702 536.234 86.9717 533.986 83.1826C515.635 85.3836 497.544 89.7763 480.224 96.2493C476.212 97.7444 471.987 99.5554 469.619 103.122C467.111 106.901 467.232 111.777 467.436 116.309C468.467 138.402 469.498 160.496 470.529 182.589" fill="#101010"/>
<path d="M453.023 101.441C453.023 101.441 452.735 101.719 452.615 102.444C452.475 103.149 452.67 104.319 453.562 105.397C454.425 106.446 455.93 107.505 457.954 107.616C459.97 107.663 462.059 106.78 464.177 105.75C466.294 104.682 468.616 103.744 471.346 103.632C474.049 103.465 476.955 103.874 480.02 104.422C483.075 104.96 486.326 105.657 489.827 105.685C493.272 105.731 497.164 104.691 499.885 102.016C502.643 99.4067 504.212 96.082 505.68 93.0359C507.138 89.9712 508.494 86.9994 510.37 84.6127C514.001 79.6535 520.186 78.2976 524.541 79.4399C529.036 80.5729 531.739 83.6283 533.095 85.7643C534.478 87.9746 534.775 89.4419 534.896 89.4047C534.933 89.3954 534.887 89.0333 534.711 88.346C534.515 87.6681 534.172 86.6837 533.522 85.5135C532.249 83.2383 529.556 79.9135 524.774 78.567C522.424 77.9262 519.638 77.8797 516.889 78.7248C514.122 79.5142 511.428 81.3344 509.459 83.8883C507.454 86.4144 506.033 89.4512 504.565 92.4973C503.098 95.5248 501.547 98.7102 499.03 101.088C496.551 103.521 493.115 104.449 489.836 104.44C486.53 104.44 483.317 103.781 480.234 103.27C477.15 102.759 474.141 102.36 471.29 102.583C468.421 102.741 465.858 103.837 463.805 104.942C461.725 106.019 459.775 106.883 457.992 106.901C456.236 106.873 454.788 105.973 453.952 105.062C453.088 104.134 452.837 103.121 452.884 102.462C452.912 101.793 453.107 101.459 453.032 101.431L453.023 101.441Z" fill="#101010"/>
<path d="M450.256 103.781C450.571 104.05 454.323 97.791 461.883 93.5283C469.377 89.1449 476.668 89.0613 476.603 88.6527C476.603 88.5134 474.81 88.3184 471.931 88.7084C469.062 89.0892 465.124 90.2129 461.261 92.4232C457.397 94.652 454.453 97.4845 452.67 99.7691C450.878 102.063 450.144 103.707 450.265 103.781H450.256Z" fill="#232323"/>
<path d="M477.819 87.3804C477.819 87.3804 477.903 87.6497 478.163 88.1048C478.469 88.5227 478.934 89.1635 479.741 89.7764C481.302 91.0116 484.255 92.1446 487.867 91.5873C491.499 91.0394 495.223 88.5413 498.492 85.2537C501.816 82.0126 504.9 77.8428 509.413 75.2796C513.926 72.7443 519.192 72.3635 523.511 73.4872C527.885 74.5831 531.219 77.2205 533.355 79.8673C535.509 82.5326 536.568 85.1794 537.097 87.0182C537.627 88.8756 537.729 89.9529 537.84 89.9436C537.887 89.9436 537.896 89.665 537.877 89.1449C537.868 88.6248 537.775 87.8633 537.571 86.8975C537.162 84.9751 536.215 82.1797 534.051 79.3194C531.924 76.4962 528.451 73.608 523.808 72.3728C519.239 71.1191 513.639 71.472 508.809 74.193C503.971 76.9605 500.897 81.2418 497.684 84.4364C494.526 87.7054 491.053 90.1014 487.719 90.7144C484.385 91.3366 481.58 90.4265 480.029 89.3864C478.441 88.3184 477.921 87.3154 477.819 87.3897V87.3804Z" fill="#232323"/>
<path d="M478.952 191.774C478.952 191.821 478.59 191.923 477.856 192.071C477.132 192.211 476.045 192.359 474.624 192.396C471.82 192.461 467.604 192.034 463.007 189.777C458.428 187.604 453.58 183.379 450.627 177.259C447.627 171.241 446.513 163.393 448.528 155.862C449.411 152.128 450.525 148.581 450.692 145.098C450.952 141.606 449.838 138.43 448.259 135.561C446.717 132.7 445.111 129.84 444.461 126.859C443.746 123.915 443.783 121.045 444.219 118.529C445.111 113.467 447.423 109.855 449.29 107.765C450.218 106.697 451.054 105.973 451.649 105.527C452.243 105.081 452.568 104.877 452.605 104.914C452.698 105.025 451.444 105.954 449.736 108.127C448.045 110.272 445.965 113.839 445.241 118.686C444.888 121.092 444.906 123.813 445.64 126.571C446.299 129.357 447.841 132.013 449.457 134.929C450.246 136.396 451.008 137.966 451.528 139.703C452.029 141.439 452.215 143.306 452.132 145.163C451.964 148.897 450.822 152.518 449.968 156.187C448.027 163.449 449.067 170.851 451.853 176.664C454.611 182.543 459.134 186.629 463.48 188.839C467.836 191.133 471.903 191.7 474.634 191.811C477.401 191.895 478.933 191.616 478.952 191.756V191.774Z" fill="#232323"/>
<path d="M435.443 83.0153C435.35 82.8853 436.78 81.6687 439.631 80.8422C442.436 80.0064 446.792 79.7928 450.999 81.7152C455.196 83.6468 457.88 87.1016 459.078 89.7669C460.313 92.4694 460.323 94.3453 460.165 94.3546C459.933 94.4103 459.552 92.6551 458.159 90.2405C456.803 87.8445 454.212 84.7984 450.395 83.0432C446.569 81.2973 442.575 81.3158 439.873 81.8545C437.133 82.3745 435.555 83.2289 435.443 83.0153V83.0153Z" fill="#101010"/>
<path d="M453.608 98.5153C453.534 98.4968 453.673 97.9488 453.71 96.918C453.766 95.8964 453.571 94.3177 452.624 92.6089C451.695 90.9094 450.014 89.0706 447.535 87.8261C445.074 86.5817 441.758 86.2102 438.554 87.594C435.341 88.8756 432.462 91.6802 430.521 95.2835C428.571 98.8961 427.828 103.363 428.023 108.007C428.19 112.678 429.23 117.516 430.326 122.559C431.394 127.593 432.499 132.951 432.211 138.56C431.905 144.197 430.01 149.38 428.051 154.153C426.082 158.945 423.992 163.449 422.711 167.953C421.392 172.43 420.974 176.897 421.596 180.992C422.172 185.088 423.491 188.784 425.005 191.988C428.097 198.396 431.663 203.021 434.013 206.252C435.137 207.748 436.056 208.973 436.78 209.949C437.412 210.794 437.718 211.258 437.681 211.286C437.644 211.314 437.254 210.924 436.548 210.134C435.842 209.345 434.83 208.166 433.558 206.605C431.069 203.466 427.354 198.925 424.076 192.443C422.479 189.202 421.058 185.431 420.398 181.169C419.693 176.924 420.092 172.197 421.42 167.591C422.701 162.948 424.8 158.379 426.732 153.624C428.654 148.878 430.465 143.845 430.762 138.495C431.208 127.713 426.843 117.748 426.686 108.062C426.518 103.261 427.345 98.5339 429.462 94.717C431.561 90.928 434.672 87.9747 438.173 86.6467C441.647 85.2073 445.343 85.6995 447.906 87.1018C450.516 88.4948 452.224 90.5008 453.135 92.3489C454.054 94.2062 454.156 95.8872 454.008 96.9366C453.868 98.0046 453.608 98.5153 453.608 98.5153V98.5153Z" fill="#232323"/>
<path d="M527.838 164.424C527.272 165.873 526.687 167.34 525.73 168.557C524.774 169.783 523.371 170.748 521.82 170.823C520.167 170.897 518.57 169.922 517.651 168.548C516.731 167.173 516.415 165.455 516.49 163.802C516.555 162.307 517.242 160.524 518.728 160.347C519.35 160.273 519.954 160.514 520.529 160.747C523.13 161.805 525.739 162.855 528.34 163.913" fill="#F4F4F5"/>
<path d="M524.718 170.851C524.681 170.609 522.963 171.306 520.548 170.34C519.378 169.866 518.106 168.938 517.4 167.48C516.694 166.031 516.555 164.081 517.298 162.372C517.465 161.945 517.725 161.555 517.976 161.202C518.282 160.877 518.226 160.895 518.561 160.942C518.876 161.025 519.396 161.267 519.814 161.434C520.251 161.61 520.678 161.787 521.096 161.954C522.768 162.632 524.281 163.217 525.563 163.7C528.117 164.656 529.742 165.158 529.816 164.981C529.891 164.805 528.414 163.978 525.953 162.79C524.727 162.195 523.25 161.508 521.607 160.765C521.189 160.579 520.771 160.394 520.344 160.199C519.889 160.013 519.536 159.809 518.914 159.614C518.607 159.53 518.18 159.484 517.753 159.651C517.344 159.818 517.084 160.096 516.889 160.329C516.536 160.793 516.23 161.276 516.007 161.815C515.087 163.951 515.31 166.309 516.248 168.065C517.205 169.857 518.83 170.86 520.214 171.269C521.616 171.705 522.833 171.594 523.594 171.399C524.374 171.194 524.736 170.934 524.709 170.851H524.718Z" fill="#263238"/>
<path d="M437.765 470.612C437.7 470.882 437.653 471.207 437.598 471.495C437.709 470.529 437.821 469.712 437.765 470.612Z" fill="#263238"/>
<path d="M414.761 491.666L411.288 522.303L383.26 547.907C383.26 547.907 380.892 544.063 382.164 540.859C383.446 537.655 375.766 545.019 375.766 545.019V562.618C375.766 562.618 370.964 564.54 369.367 560.38C367.77 556.219 366.804 541.184 366.804 541.184L369.042 539.586C369.042 539.586 366.163 537.023 366.804 532.547C366.804 532.547 364.241 527.105 365.206 519.749C366.163 512.394 368.085 508.549 368.085 508.549L391.043 482.927L414.752 491.675L414.761 491.666Z" fill="#AA6551"/>
<path d="M400.682 521.152C400.933 521.338 397.525 526.213 392.408 531.451C387.309 536.707 382.536 540.246 382.341 540.004C382.118 539.744 386.52 535.825 391.563 530.624C396.615 525.442 400.413 520.938 400.682 521.152Z" fill="#724A41"/>
<path d="M381.003 526.752C381.236 526.984 378.245 530.429 374.335 534.441C370.426 538.453 367.055 541.527 366.822 541.304C366.581 541.081 369.571 537.645 373.49 533.615C377.409 529.594 380.781 526.52 381.003 526.752Z" fill="#724A41"/>
<path d="M377.214 519.731C377.437 519.991 374.763 522.526 371.912 526.037C369.042 529.529 367.092 532.649 366.794 532.491C366.516 532.352 368.048 528.888 371.001 525.294C373.936 521.69 377.029 519.499 377.214 519.74V519.731Z" fill="#724A41"/>
<path d="M373.983 512.487C374.205 512.738 372.162 514.846 369.822 517.558C367.472 520.27 365.68 522.582 365.401 522.406C365.132 522.238 366.516 519.573 368.931 516.787C371.336 514.001 373.778 512.246 373.983 512.487V512.487Z" fill="#724A41"/>
<path d="M580.3 145.516C580.448 145.841 585.036 144.058 590.543 141.541C596.06 139.015 600.397 136.712 600.248 136.387C600.099 136.062 595.512 137.845 590.005 140.371C584.497 142.897 580.151 145.2 580.3 145.525V145.516Z" fill="#455B64"/>
<path d="M612.683 192.573C614.996 192.48 620.596 195.823 625.1 202.027C625.174 202.12 625.258 202.203 625.332 202.296C628.536 206.466 631.545 194.569 632.093 190.14C632.446 187.27 635.547 185.505 638.361 186.546L653.239 193.501L657.585 193.65C659.777 194.458 660.993 196.715 660.418 198.897L653.304 222.384L653.146 228.792L623.363 232.822L622.908 216.765C622.462 214.908 621.877 212.716 621.079 210.218C620.363 207.97 619.258 205.834 617.8 203.949C616.268 201.971 614.197 199.482 612.451 198.071C612.293 197.968 612.117 197.82 611.968 197.746C611.606 197.551 611.346 197.29 611.123 197.012C609.618 195.387 610.445 192.656 612.702 192.563L612.683 192.573Z" fill="#AA6551"/>
<path d="M613.268 120.2C613.268 120.2 630.653 116.866 655.626 94.1783C680.598 71.4904 692.903 40.7695 695.875 41.0016C698.847 41.2338 712.016 35.5688 735.196 90.0363C758.385 144.495 748.29 156.707 743.377 156.465C738.465 156.224 705.338 145.971 684.415 147.754C663.492 149.537 636.374 159.641 636.374 159.641L613.259 120.209L613.268 120.2Z" fill="#FF9654"/>
<path d="M575.74 148.46L581.312 159.837L583.81 164.935C587.237 171.928 595.53 175.011 602.69 171.956L640.089 160.106L619.918 110.263L582.362 128.93C575.155 132.515 572.192 141.244 575.731 148.469L575.74 148.46Z" fill="#483F99"/>
<path d="M596.58 167.015L607.724 190.474L613.668 189.007L651.317 221.446L662.684 200.671C662.684 200.671 640.191 190.214 636.207 181.976C632.223 173.739 637.145 172.03 637.145 172.03L626.771 159.549L596.57 167.025L596.58 167.015Z" fill="#483F99"/>
<path d="M733.18 90.965C745.504 120.46 750.25 146.566 743.767 149.268C737.285 151.98 722.045 130.258 709.712 100.772C697.389 71.2769 692.652 45.1715 699.125 42.469C705.608 39.7572 720.847 61.4699 733.18 90.965V90.965Z" fill="#263238"/>
<path d="M572.1 164.564L582.231 161.703L576.353 149.714L568.691 154.181L572.1 164.564Z" fill="#483F99"/>
<g opacity="0.3">
<path d="M630.328 163.821L602.867 180.258L599.691 173.572L630.328 163.821Z" fill="black"/>
</g>
<path d="M583.188 152.63C583.327 152.955 588.389 151.153 594.499 148.599C600.61 146.046 605.449 143.705 605.309 143.38C605.17 143.055 600.109 144.857 593.998 147.411C587.887 149.965 583.049 152.305 583.188 152.63Z" fill="white"/>
<path d="M586.875 160.124C586.921 160.301 588.119 160.059 590.042 159.521C590.998 159.252 592.141 158.917 593.394 158.518C594.648 158.1 595.948 157.487 597.341 156.911C602.904 154.515 607.167 152.138 607.037 151.841C606.888 151.488 602.347 153.354 596.83 155.723C595.447 156.298 594.165 156.948 592.958 157.413C591.741 157.858 590.655 158.286 589.754 158.657C587.934 159.4 586.828 159.957 586.875 160.124Z" fill="white"/>
<path d="M706.546 83.7213C706.546 83.7213 721.822 74.8337 729.466 95.3577C737.109 115.882 721.21 118.77 721.21 118.77C715.025 108.564 710.102 96.9179 706.546 83.7306V83.7213Z" fill="#FAFBFB"/>
<path d="M691.269 59.0925C691.176 59.1018 691.352 60.4856 691.752 62.9837C692.16 65.4726 692.727 69.0945 693.563 73.5429C694.138 75.7346 694.761 78.1306 695.429 80.7031C695.773 81.994 696.126 83.322 696.488 84.6872C696.674 85.3744 696.859 86.0709 697.045 86.7674C697.249 87.4639 697.519 88.1512 697.76 88.8663C698.763 91.6895 699.813 94.652 700.899 97.7167C701.168 98.4875 701.447 99.2583 701.726 100.038C701.995 100.818 702.385 101.561 702.719 102.332C703.407 103.865 704.112 105.425 704.818 106.994C705.533 108.573 706.23 110.124 706.926 111.656C707.289 112.418 707.586 113.198 707.994 113.922C708.394 114.647 708.793 115.371 709.183 116.077C710.762 118.928 712.285 121.677 713.743 124.296C714.114 124.946 714.449 125.605 714.839 126.218C715.247 126.822 715.647 127.425 716.037 128.02C716.826 129.199 717.588 130.341 718.331 131.456C719.817 133.657 721.2 135.719 722.463 137.604C725.24 141.161 727.562 143.975 729.168 145.925C730.775 147.866 731.704 148.915 731.769 148.859C731.843 148.804 731.044 147.652 729.559 145.618C728.017 143.538 725.844 140.622 723.178 137.047C721.962 135.152 720.634 133.081 719.204 130.862C718.489 129.747 717.746 128.605 716.984 127.425C716.603 126.831 716.213 126.237 715.823 125.633C715.442 125.02 715.117 124.351 714.755 123.711C713.334 121.101 711.839 118.352 710.298 115.51C709.907 114.805 709.517 114.08 709.127 113.365C708.728 112.65 708.431 111.87 708.078 111.108C707.391 109.585 706.694 108.034 705.988 106.474C705.283 104.914 704.586 103.363 703.899 101.849C703.574 101.078 703.174 100.345 702.905 99.574C702.627 98.8032 702.348 98.0324 702.069 97.2709C700.964 94.2341 699.896 91.2994 698.875 88.5041C698.624 87.8076 698.345 87.1203 698.132 86.4331C697.937 85.7366 697.742 85.0493 697.556 84.3714C697.175 83.0155 696.804 81.6968 696.451 80.4245C695.726 77.8799 695.058 75.5117 694.436 73.3479C693.516 68.9923 692.764 65.4448 692.235 62.9187C691.687 60.4577 691.352 59.1018 691.259 59.1111L691.269 59.0925Z" fill="#263238"/>
<path d="M643.562 182.06C645.159 182.747 645.949 184.623 645.345 186.323C644.203 189.564 642.355 194.644 640.971 197.718C640.525 198.711 640.042 199.714 639.271 200.457C638.501 201.2 637.368 201.628 636.374 201.256C635.334 200.857 634.721 199.668 634.647 198.516C634.563 197.365 634.916 196.232 635.269 195.127C636.244 192.099 637.925 187.567 639.364 183.88C640.033 182.162 641.918 181.345 643.562 182.051V182.06Z" fill="#AA6551"/>
<path d="M648.085 188.031C649.682 188.719 650.471 190.595 649.868 192.294C648.726 195.535 646.877 200.615 645.494 203.689C645.048 204.683 644.565 205.686 643.794 206.429C643.023 207.172 641.89 207.599 640.897 207.227C639.857 206.828 639.244 205.639 639.169 204.488C639.086 203.336 639.439 202.203 639.792 201.098C640.767 198.071 642.448 193.539 643.887 189.852C644.556 188.134 646.441 187.316 648.085 188.022V188.031Z" fill="#AA6551"/>
<path d="M652.44 191.82C653.88 192.415 654.595 194.04 654.056 195.507C653.025 198.312 651.344 202.714 650.1 205.379C649.701 206.243 649.264 207.116 648.568 207.757C647.871 208.397 646.84 208.769 645.949 208.444C645.011 208.1 644.453 207.069 644.379 206.076C644.305 205.073 644.621 204.098 644.936 203.141C645.819 200.522 647.342 196.594 648.642 193.408C649.246 191.923 650.954 191.207 652.44 191.82Z" fill="#AA6551"/>
<path d="M658.179 193.093C659.628 193.697 660.343 195.322 659.805 196.798C658.765 199.612 657.084 204.033 655.83 206.717C655.421 207.58 654.985 208.453 654.288 209.103C653.583 209.754 652.552 210.125 651.66 209.8C650.713 209.456 650.165 208.426 650.091 207.413C650.016 206.41 650.332 205.426 650.657 204.469C651.549 201.832 653.072 197.894 654.381 194.69C654.994 193.195 656.703 192.48 658.198 193.102L658.179 193.093Z" fill="#AA6551"/>
<path d="M639.578 200.587C639.884 200.717 641.24 198.173 642.605 194.913C643.971 191.653 644.825 188.904 644.519 188.774C644.212 188.644 642.856 191.189 641.491 194.449C640.126 197.708 639.271 200.457 639.578 200.587Z" fill="#724A41"/>
<path d="M644.509 205.547C644.816 205.667 646.274 202.733 647.75 198.999C649.227 195.266 650.184 192.136 649.877 192.006C649.571 191.876 648.122 194.811 646.636 198.554C645.15 202.296 644.203 205.426 644.509 205.547Z" fill="#724A41"/>
<path d="M649.654 206.206C649.942 206.364 651.539 203.903 652.923 200.578C654.316 197.253 654.929 194.384 654.623 194.291C654.298 194.189 653.183 196.845 651.809 200.114C650.453 203.383 649.348 206.048 649.654 206.206Z" fill="#724A41"/>
<path d="M472.748 248.721C472.553 248.721 472.563 246.288 471.913 242.462C471.263 238.654 469.786 233.435 466.833 228.327C463.982 223.154 460.053 219.31 456.524 217.833C452.986 216.31 450.479 217.118 450.469 216.867C450.451 216.821 451.017 216.533 452.141 216.412C453.246 216.273 454.936 216.356 456.84 217.062C460.685 218.427 464.948 222.449 467.864 227.742C470.91 233.008 472.293 238.431 472.748 242.35C473.204 246.288 472.888 248.74 472.758 248.731L472.748 248.721Z" fill="#263238"/>
<path d="M480.744 211.286L531.553 219.161L540.608 226.999C540.608 226.999 572.582 289.268 573.177 301.833C573.827 315.726 566.369 339.575 566.369 339.575L573.688 394.59C574.765 400.905 570.66 406.97 567.902 406.97L480.132 395.203C468.69 392.956 463.991 386.975 464.697 380.353L466.006 368.095L428.524 242.545C426.305 249.966 429.769 222.542 446.513 216.384C453.599 213.775 469.99 209.038 480.763 211.295L480.744 211.286Z" fill="#FF9654"/>
<path d="M535.918 223.303C535.918 223.303 551.557 235.357 566.36 249.065C581.163 262.772 620.642 290.187 620.642 290.187L623.363 232.831L653.146 228.801C653.146 228.801 667.708 300.319 658.467 320.054C649.227 339.798 638.185 340.624 607.482 330.761C576.78 320.889 568.004 316.506 568.004 316.506L535.918 223.303V223.303Z" fill="#FF9654"/>
<path d="M543.775 231.819C543.775 231.819 544.053 232.107 544.48 232.711C544.972 233.435 545.576 234.317 546.301 235.385C547.861 237.726 550.08 241.125 552.727 245.397C557.956 253.94 565.106 266.032 569.778 280.761C574.44 295.499 574.616 309.903 572.406 319.757C571.347 324.697 569.936 328.561 568.728 331.114C568.19 332.415 567.595 333.353 567.261 334.012C566.899 334.662 566.695 334.987 566.657 334.968C566.564 334.922 567.252 333.52 568.301 330.938C569.369 328.356 570.641 324.502 571.579 319.599C573.557 309.838 573.251 295.676 568.645 281.123C564.029 266.561 557.045 254.479 552.003 245.833C549.495 241.645 547.434 238.199 545.901 235.636C545.251 234.522 544.712 233.602 544.267 232.841C543.905 232.2 543.728 231.847 543.765 231.828L543.775 231.819Z" fill="#263238"/>
<path d="M456.051 216.394C456.051 216.394 471.866 237.113 472.73 256.123C473.594 275.133 444.349 389.092 444.349 389.092L418.699 493.124L386.771 481.348C386.771 481.348 394.2 407.285 395.612 398.082C398.556 378.923 411.186 341.571 412.913 319.97C414.64 298.369 422.646 256.782 426.602 247.05C430.558 237.317 430.707 215.846 456.041 216.394H456.051Z" fill="#FF9654"/>
<path d="M471.42 266.617C471.42 266.617 471.439 267.007 471.374 267.731C471.272 268.595 471.151 269.644 471.003 270.907C470.631 273.656 470.009 277.622 469.127 282.498C467.381 292.258 464.595 305.668 461.27 320.416C457.917 335.163 454.676 348.462 452.197 358.056C450.952 362.857 449.912 366.72 449.151 369.386C448.788 370.602 448.491 371.614 448.24 372.441C448.018 373.137 447.888 373.5 447.841 373.49C447.804 373.481 447.86 373.1 448.008 372.385L448.705 369.274C449.383 366.395 450.284 362.541 451.379 357.851C453.655 348.035 456.719 334.792 460.109 320.147C463.434 305.408 466.35 292.044 468.3 282.34C469.219 277.622 469.981 273.731 470.538 270.833C470.77 269.579 470.965 268.549 471.123 267.694C471.272 266.979 471.365 266.608 471.411 266.608L471.42 266.617Z" fill="#263238"/>
<g opacity="0.3">
<path d="M473.705 393.476C478.738 388.424 479.797 380.753 480.587 373.667C483.094 351.109 485.611 328.561 488.118 306.003C489.688 291.942 491.164 277.195 485.862 264.072C485.063 262.104 483.893 259.996 481.85 259.42C479.899 258.872 477.791 259.986 476.575 261.602C475.349 263.218 471.931 265.54 471.43 267.499C466.303 287.605 464.084 307.405 458.967 327.511C457.611 332.823 455.846 332.619 457.026 337.977C458.725 345.751 466.015 368.085 466.015 368.085C466.015 368.085 464.975 376.193 464.669 380.929C464.362 385.666 467.13 391.563 473.724 393.467" fill="black"/>
</g>
<path d="M468.987 277.826C469.024 277.891 468.412 278.346 467.251 279.08C466.081 279.804 464.372 280.844 462.096 281.838C459.84 282.813 456.896 283.798 453.506 283.575C450.098 283.389 446.671 281.717 443.541 279.656C440.393 277.575 437.579 275.412 434.691 274.084C431.831 272.709 428.952 272.282 426.63 272.765C424.29 273.174 422.618 274.297 421.708 275.235C420.788 276.201 420.482 276.916 420.38 276.86C420.333 276.851 420.491 276.052 421.364 274.929C422.228 273.824 423.965 272.496 426.463 271.948C428.942 271.307 432.137 271.706 435.146 273.09C438.201 274.427 441.099 276.628 444.191 278.662C447.275 280.696 450.469 282.265 453.599 282.488C456.719 282.758 459.543 281.922 461.79 281.067C466.285 279.247 468.894 277.622 468.997 277.817L468.987 277.826Z" fill="#FAFBFB"/>
<path d="M567.985 275.412C567.985 275.412 567.865 275.728 567.53 276.266C567.215 276.814 566.639 277.566 565.803 278.449C564.141 280.195 561.169 282.312 556.953 283.454C552.783 284.624 547.461 284.894 541.871 283.659C536.261 282.498 530.457 280.13 524.328 278.012C512.106 273.462 499.968 273.907 491.759 275.82C483.456 277.687 478.822 280.427 478.72 280.167C478.701 280.13 478.98 279.953 479.528 279.637C480.076 279.331 480.884 278.867 481.98 278.374C484.143 277.353 487.385 276.034 491.573 275.003C495.743 273.963 500.869 273.229 506.581 273.397C512.283 273.499 518.542 274.697 524.718 276.888C530.903 279.024 536.633 281.402 542.103 282.591C547.536 283.854 552.671 283.668 556.748 282.637C560.853 281.634 563.778 279.712 565.497 278.114C567.215 276.498 567.893 275.338 567.995 275.412H567.985Z" fill="#FAFBFB"/>
<path d="M586.652 265.326C586.773 265.317 587.116 267.128 586.893 270.081C586.689 273.025 585.751 277.102 583.643 281.123C581.516 285.144 578.684 288.209 576.371 290.048C574.059 291.896 572.369 292.648 572.313 292.537C572.211 292.37 573.715 291.376 575.823 289.416C577.932 287.475 580.551 284.439 582.603 280.575C584.637 276.703 585.658 272.83 586.067 269.988C586.485 267.146 586.457 265.335 586.652 265.326V265.326Z" fill="#FAFBFB"/>
<g opacity="0.3">
<path d="M554.018 247.05C578.015 271.14 598.641 297.923 607.492 330.761C593.784 326.267 580.829 321.911 572.257 318.354C572.257 318.354 574.83 304.823 573.27 296.855C571.366 287.113 571.375 278.941 554.018 247.05" fill="black"/>
</g>
<path d="M620.206 290.317C619.955 290.587 622.917 293.354 624.998 297.765C627.134 302.149 627.44 306.198 627.802 306.161C628.099 306.207 628.341 301.898 626.084 297.236C623.865 292.555 620.363 290.048 620.206 290.308V290.317Z" fill="#263238"/>
<path d="M264.862 481.868C263.608 481.868 262.596 482.88 262.596 484.134V578.73H233.231V484.134C233.231 482.88 232.218 481.868 230.965 481.868C229.711 481.868 228.699 482.88 228.699 484.134V628.833C228.699 630.087 229.711 631.099 230.965 631.099C232.218 631.099 233.231 630.087 233.231 628.833V583.272H262.596V628.833C262.596 630.087 263.608 631.099 264.862 631.099C266.115 631.099 267.128 630.087 267.128 628.833V484.134C267.128 482.88 266.115 481.868 264.862 481.868V481.868Z" fill="#F8F4EE"/>
<path d="M274.854 487.32C273.601 487.32 272.588 488.332 272.588 489.586V587.209H240.799V489.586C240.799 488.332 239.787 487.32 238.533 487.32C237.28 487.32 236.267 488.332 236.267 489.586V634.284C236.267 635.538 237.28 636.55 238.533 636.55C239.787 636.55 240.799 635.538 240.799 634.284V591.751H272.588V634.284C272.588 635.538 273.601 636.55 274.854 636.55C276.108 636.55 277.12 635.538 277.12 634.284V489.586C277.12 488.332 276.108 487.32 274.854 487.32Z" fill="#F8F4EE"/>
<path d="M217.944 491.109C217.944 494.285 220.517 496.857 223.693 496.857H281.207C284.383 496.857 286.955 494.285 286.955 491.109C286.955 487.933 284.383 485.36 281.207 485.36H223.693C220.517 485.36 217.944 487.933 217.944 491.109Z" fill="#FF9654"/>
<path d="M266.896 383.567C266.496 384.7 266.088 385.833 265.67 386.966L238.125 387.755C237.419 385.498 236.713 383.251 236.026 380.985C235.97 380.808 235.924 380.632 235.868 380.446C240.957 379.48 245.22 379.48 245.22 379.48L244.523 366.757L258.788 363.795L258.835 379.778C261.5 380.363 264.435 381.245 267.397 382.322C267.221 382.731 267.053 383.139 266.905 383.567H266.896Z" fill="#F9AE83"/>
<path d="M253.662 451.444H162.242V455.076H253.662V451.444Z" fill="#C2C0C0"/>
<path opacity="0.2" d="M253.662 451.444H217.006L206.744 409.068L203.15 409.226L214.61 456.561L163.746 457.156L163.755 457.202L218.251 456.561L217.889 455.085H253.662V451.444Z" fill="#231E56"/>
<path opacity="0.2" d="M199.779 458.632C199.371 458.632 198.971 458.614 198.572 458.586V475.07H206.744V458.159C204.553 458.53 202.25 458.632 199.779 458.632Z" fill="#231E56"/>
<path d="M256.699 454.472H207.655V464.465H256.699V454.472Z" fill="#DC8827"/>
<path opacity="0.2" d="M238.487 631.703C234.809 634.396 220.777 636.392 204.014 636.392C187.251 636.392 173.219 634.387 169.541 631.703C168.928 632.148 168.594 632.622 168.594 633.096C168.594 636.458 184.447 639.188 204.014 639.188C223.582 639.188 239.434 636.458 239.434 633.096C239.434 632.613 239.1 632.148 238.487 631.703Z" fill="#231E56"/>
<path opacity="0.1" d="M215.279 652.793C256.511 652.793 289.936 647.093 289.936 640.061C289.936 633.029 256.511 627.329 215.279 627.329C174.047 627.329 140.622 633.029 140.622 640.061C140.622 647.093 174.047 652.793 215.279 652.793Z" fill="#161819"/>
<path opacity="0.3" d="M263.097 471.328C261.769 471.328 260.683 472.405 260.683 473.742V574.18H229.507V473.742C229.507 472.414 228.429 471.328 227.092 471.328C225.755 471.328 224.677 472.405 224.677 473.742V627.366C224.677 628.694 225.755 629.78 227.092 629.78C228.429 629.78 229.507 628.703 229.507 627.366V579H260.683V627.366C260.683 628.694 261.76 629.78 263.097 629.78C264.434 629.78 265.512 628.703 265.512 627.366V473.742C265.512 472.414 264.434 471.328 263.097 471.328Z" fill="#231E56"/>
<path d="M218.873 392.621L217.304 447.544L202.844 445.139L211.258 395.398L218.873 392.621Z" fill="#F9AE83"/>
<path d="M236.1 480.327C236.1 480.327 217.536 517.149 207.673 535.082C207.673 535.082 206.113 557.51 203.132 573.298C200.532 587.079 196.77 602.143 196.77 602.143L185.524 603.313C185.524 603.313 184.456 537.45 186.713 527.894C188.969 518.338 205.286 447.163 249.789 452.132L236.1 480.308V480.327Z" fill="#090B0A"/>
<path d="M166.068 631.888L200.875 624.097C202.519 623.725 203.587 622.202 203.448 620.586C203.429 620.363 203.383 620.131 203.318 619.908L197.81 601.938C197.81 601.938 196.213 601.595 194.077 601.567C192.814 601.548 191.598 600.907 190.975 599.802C190.929 599.719 190.892 599.635 190.845 599.552C189.257 596.208 183.936 596.227 183.769 599.877C183.75 600.35 183.741 600.805 183.741 601.242C183.741 601.353 183.741 601.455 183.741 601.567C183.759 602.338 183.797 603.043 183.852 603.656C183.852 603.666 183.852 603.684 183.852 603.693C184.001 605.254 184.233 606.22 184.233 606.22C183.908 606.907 183.592 607.585 183.286 608.244C183.128 608.578 182.979 608.903 182.831 609.228C182.506 609.925 182.19 610.603 181.874 611.262C181.735 611.569 181.586 611.866 181.438 612.163C181.094 612.878 180.741 613.556 180.388 614.197C180.23 614.485 180.063 614.773 179.896 615.051C178.522 617.336 176.999 619.035 174.928 619.815C171.269 621.181 165.195 622.973 163.458 629.186C163.421 629.316 163.403 629.446 163.384 629.576C163.245 631.015 164.573 632.241 166.059 631.907L166.068 631.888Z" fill="#FF9654"/>
<path d="M166.068 631.888L200.875 624.097C202.519 623.725 203.587 622.202 203.448 620.586L163.393 629.557C163.254 630.997 164.582 632.223 166.068 631.888Z" fill="#FF9654"/>
<path d="M182.831 609.219C183.369 609.721 184.345 610.25 186.155 610.547C186.462 610.603 186.796 610.64 187.149 610.677L187.242 609.702C186.889 609.665 186.564 609.628 186.276 609.572C184.205 609.228 183.509 608.597 183.286 608.235C183.128 608.569 182.979 608.894 182.831 609.219V609.219Z" fill="white"/>
<path d="M186.118 610.426C186.248 611.021 186.843 611.401 187.437 611.262C188.031 611.132 188.412 610.538 188.273 609.943C188.143 609.349 187.548 608.968 186.954 609.108C186.36 609.238 185.979 609.832 186.118 610.426Z" fill="white"/>
<path d="M181.447 612.154C182.004 612.525 182.859 612.897 184.168 613.12C184.53 613.185 184.93 613.24 185.366 613.287L185.459 612.312C185.05 612.274 184.688 612.219 184.354 612.163C183.026 611.931 182.283 611.569 181.874 611.253C181.735 611.559 181.586 611.857 181.438 612.154H181.447Z" fill="white"/>
<path d="M184.149 613.082C184.28 613.677 184.874 614.057 185.468 613.918C186.063 613.788 186.443 613.194 186.304 612.599C186.174 612.005 185.58 611.624 184.985 611.764C184.391 611.894 184.01 612.488 184.149 613.082Z" fill="white"/>
<path d="M179.896 615.042C180.453 615.404 181.28 615.738 182.524 615.961C182.896 616.026 183.295 616.091 183.741 616.128L183.834 615.153C183.425 615.116 183.054 615.06 182.729 615.005C181.54 614.791 180.816 614.485 180.388 614.197C180.23 614.485 180.063 614.773 179.896 615.051V615.042Z" fill="white"/>
<path d="M182.524 615.924C182.654 616.519 183.249 616.899 183.843 616.76C184.437 616.63 184.818 616.036 184.679 615.441C184.549 614.847 183.955 614.466 183.36 614.605C182.766 614.735 182.385 615.33 182.524 615.924Z" fill="white"/>
<path d="M183.852 603.647C185.44 603.266 186.991 603.127 186.991 603.127L186.583 601.39C185.552 601.251 184.558 601.372 183.732 601.557C183.75 602.328 183.787 603.034 183.843 603.647H183.852Z" fill="white"/>
<path d="M201.386 448.993H192.712V632.808H201.386V448.993Z" fill="#F8F4EE"/>
<path d="M198.498 638.343C219.265 638.343 236.1 635.449 236.1 631.879C236.1 628.309 219.265 625.416 198.498 625.416C177.73 625.416 160.895 628.309 160.895 631.879C160.895 635.449 177.73 638.343 198.498 638.343Z" fill="#F8F4EE"/>
<path d="M279.349 448.241C279.349 448.241 286.974 481.293 268.177 527.328C268.177 527.328 266.905 555.374 261.073 566.797C255.231 578.22 237.112 615.079 237.112 615.079L224.919 612.098L246.102 524.356L250.941 458.168C250.941 458.168 266.06 447.618 279.358 448.241H279.349Z" fill="#090B0A"/>
<path d="M247.245 489.874C247.245 489.874 222.207 492.845 213.607 470.26C213.607 470.26 265.744 459.088 280.882 466.118C280.882 466.118 261.741 485.89 247.245 489.874Z" fill="#090B0A"/>
<path d="M191.895 621.032L228.401 634.275C230.129 634.898 232.005 634.127 232.813 632.567C232.924 632.344 233.026 632.112 233.091 631.861L238.561 612.145C238.561 612.145 237.298 610.891 235.348 609.619C234.196 608.866 233.463 607.557 233.528 606.183C233.528 606.08 233.546 605.978 233.556 605.876C234.057 601.883 229.163 598.781 226.869 602.031C226.572 602.449 226.293 602.867 226.043 603.266C225.978 603.369 225.913 603.471 225.857 603.564C225.42 604.279 225.049 604.957 224.742 605.551C224.742 605.56 224.733 605.579 224.724 605.588C223.953 607.102 223.6 608.133 223.6 608.133C222.894 608.569 222.207 609.006 221.538 609.433C221.204 609.647 220.87 609.86 220.545 610.064C219.839 610.51 219.152 610.956 218.483 611.374C218.167 611.569 217.861 611.764 217.554 611.95C216.821 612.395 216.096 612.823 215.4 613.194C215.084 613.371 214.768 613.538 214.453 613.686C211.852 614.987 209.465 615.646 207.107 615.144C202.955 614.253 196.325 612.34 191.096 617.02C190.985 617.113 190.892 617.225 190.808 617.336C189.842 618.571 190.344 620.484 191.895 621.042V621.032Z" fill="#FF9654"/>
<path d="M191.895 621.032L228.401 634.275C230.129 634.897 232.005 634.127 232.813 632.566L190.808 617.327C189.842 618.562 190.344 620.475 191.895 621.032Z" fill="#FF9654"/>
<path d="M220.554 610.064C220.749 610.835 221.343 611.903 222.829 613.231C223.08 613.463 223.359 613.696 223.665 613.937L224.324 613.101C224.018 612.86 223.749 612.637 223.507 612.414C221.808 610.882 221.548 609.897 221.548 609.433C221.213 609.646 220.879 609.86 220.554 610.064V610.064Z" fill="white"/>
<path d="M222.866 613.101C222.644 613.723 222.959 614.42 223.591 614.643C224.213 614.866 224.91 614.55 225.132 613.918C225.355 613.296 225.04 612.6 224.408 612.377C223.786 612.154 223.089 612.47 222.866 613.101Z" fill="white"/>
<path d="M217.573 611.94C217.861 612.609 218.437 613.445 219.505 614.42C219.802 614.698 220.127 614.977 220.508 615.274L221.167 614.429C220.814 614.151 220.508 613.891 220.238 613.649C219.152 612.655 218.687 611.894 218.492 611.365C218.177 611.56 217.87 611.755 217.564 611.94H217.573Z" fill="white"/>
<path d="M219.514 614.374C219.291 614.996 219.607 615.692 220.238 615.915C220.861 616.138 221.557 615.822 221.78 615.191C222.003 614.569 221.687 613.872 221.056 613.649C220.433 613.426 219.737 613.742 219.514 614.374Z" fill="white"/>
<path d="M214.462 613.677C214.759 614.336 215.326 615.126 216.338 616.064C216.635 616.342 216.969 616.63 217.35 616.927L218.009 616.082C217.657 615.804 217.35 615.544 217.081 615.293C216.106 614.401 215.632 613.696 215.409 613.185C215.093 613.361 214.778 613.528 214.462 613.677Z" fill="white"/>
<path d="M216.347 616.027C216.124 616.649 216.44 617.345 217.071 617.568C217.694 617.791 218.39 617.475 218.613 616.844C218.836 616.222 218.52 615.525 217.889 615.302C217.266 615.079 216.57 615.395 216.347 616.027Z" fill="white"/>
<path d="M224.761 605.551C226.442 606.136 227.946 606.916 227.946 606.916L228.587 605.077C227.723 604.344 226.739 603.87 225.875 603.564C225.439 604.279 225.067 604.957 224.761 605.551V605.551Z" fill="white"/>
<path d="M257.107 362.504C257.107 362.504 280.826 363.516 287.215 377.855L291.766 402.503L289.565 402.958L277.334 405.475L281.253 458.057C281.253 458.057 245.796 472.739 216.886 462.459C216.886 462.459 212.029 391.962 218.381 375.125C218.381 375.125 218.92 364.009 238.951 362.578C238.951 362.578 246.084 372.228 257.116 362.504H257.107Z" fill="#F8F4EE"/>
<path d="M217.434 402.057L208.36 398.472C208.36 398.472 212.326 372.729 223.284 367.723C234.243 362.708 217.434 402.057 217.434 402.057V402.057Z" fill="#F8F4EE"/>
<path d="M155.759 445.139L140.334 396.763L201.395 394.033L213.607 444.451L155.759 445.139Z" fill="#C2C0C0"/>
<path d="M290.809 402.642L278.383 405.233C278.383 405.233 281.244 416.498 281.365 419.915C281.365 419.915 271.307 422.776 264.927 426.676C258.547 430.567 251.405 433.316 251.405 433.316C252.779 435.777 253.244 438.211 253.457 440.625C253.457 440.625 288.822 438.563 292.351 427.336C294.905 419.21 292.499 412.997 290.8 402.642H290.809Z" fill="#F9AE83"/>
<path d="M254.423 442.241H145.47V452.847H254.423V442.241Z" fill="#FF9654"/>
<path d="M227.928 309.615C227.928 309.615 223.321 311.9 223.916 319.719C224.501 327.539 227.352 328.709 227.352 328.709C227.352 328.709 233.89 312.364 227.928 309.615Z" fill="#101010"/>
<path d="M243.14 347.673L242.499 357.387L242.202 361.835C247.254 366.627 256.986 362.077 256.986 362.077L259.707 347.896C257.349 345.843 250.551 346.475 246.427 347.088C244.486 347.376 243.14 347.664 243.14 347.664V347.673Z" fill="#F9AE83"/>
<path d="M243.14 347.673L242.499 357.387C249.213 356.681 255.788 348.304 255.788 348.304L246.427 347.097C244.486 347.385 243.14 347.673 243.14 347.673Z" fill="#F58A69"/>
<path d="M228.309 313.609C228.309 313.609 218.492 307.489 222.597 299.316C226.702 291.144 238.663 296.604 249.808 298.406C267.75 301.304 272.254 311.38 270.592 321.085C268.939 330.799 267.434 343.902 262.41 348.239C257.386 352.576 255.213 345.305 253.671 338.915C252.129 332.526 240.298 312.095 228.309 313.609V313.609Z" fill="#101010"/>
<path d="M226.349 321.8C226.312 322.134 226.284 322.468 226.247 322.803C225.69 328.885 225.829 336.389 226.117 342.509C226.433 349.001 232.042 353.96 238.524 353.459C246.334 352.855 256.011 351.675 260.645 349.382C262.057 348.685 262.995 347.886 263.274 346.967C263.924 344.831 264.5 341.869 265.001 338.637C266.515 328.839 267.295 316.488 267.295 316.488C259.531 303.997 233.472 305.297 228.569 313.144C227.445 314.937 226.748 318.057 226.349 321.79V321.8Z" fill="#F9AE83"/>
<path d="M229.822 340.104C229.822 340.104 229.906 340.411 230.11 340.856C230.435 341.562 231.067 342.612 232.172 343.401C233.212 344.144 234.689 344.646 236.722 344.385C238.533 344.163 239.769 343.448 240.604 342.547C241.793 341.284 242.192 339.668 242.332 338.553C242.425 337.783 242.387 337.244 242.387 337.244C237.243 340.234 229.822 340.104 229.822 340.104V340.104Z" fill="#921A1D"/>
<path d="M232.172 343.401C233.212 344.144 234.689 344.645 236.722 344.385C238.533 344.163 239.769 343.447 240.604 342.547C239.564 341.971 237.846 341.46 235.766 341.85C233.992 342.184 233.054 342.844 232.172 343.401V343.401Z" fill="#F15D67"/>
<path d="M229.822 340.104C229.822 340.104 229.906 340.411 230.11 340.856C235.311 341.887 240.409 339.575 242.332 338.553C242.425 337.783 242.387 337.244 242.387 337.244C237.243 340.234 229.822 340.104 229.822 340.104V340.104Z" fill="white"/>
<path d="M240.799 329.146C240.642 330.427 241.087 331.532 241.784 331.616C242.48 331.7 243.186 330.734 243.335 329.461C243.483 328.189 243.047 327.075 242.35 326.991C241.654 326.908 240.948 327.873 240.79 329.146H240.799Z" fill="#101010"/>
<path d="M227.779 327.548C227.621 328.83 228.067 329.935 228.764 330.019C229.46 330.102 230.166 329.136 230.324 327.864C230.482 326.592 230.036 325.477 229.339 325.394C228.643 325.31 227.937 326.276 227.788 327.548H227.779Z" fill="#101010"/>
<path d="M266.143 329.647C266.143 329.647 262.391 326.49 258.379 330.808L255.705 330.483C255.705 330.483 256.531 325.013 255.603 321.883C254.674 318.744 249.548 318.196 249.213 314.593C249.213 314.593 236.555 317.918 228.299 313.609C220.043 309.309 247.755 298.072 259.41 306.625C271.065 315.178 269.226 320.546 266.143 329.647V329.647Z" fill="#101010"/>
<path d="M247.978 326.777C247.978 326.777 247.059 324.112 244.793 323.193C242.685 322.348 241.069 322.71 240.233 323.044C239.871 323.183 239.676 323.583 239.759 323.964C239.871 324.409 240.335 324.669 240.772 324.53C242.165 324.075 245.155 323.648 247.969 326.777H247.978Z" fill="#101010"/>
<path d="M226.349 321.8C226.312 322.134 226.284 322.468 226.247 322.803C228.764 321.948 230.723 322.803 231.708 323.406C231.81 323.471 231.921 323.508 232.033 323.518C232.348 323.555 232.673 323.397 232.831 323.1C233.008 322.756 232.915 322.329 232.599 322.097C231.875 321.577 230.389 320.825 228.141 321.14C227.473 321.233 226.869 321.484 226.349 321.79V321.8Z" fill="#101010"/>
<path d="M260.645 349.382C262.057 348.685 262.995 347.886 263.274 346.967C263.924 344.831 264.499 341.869 265.001 338.637L257.701 342.435C257.701 342.435 257.024 347.218 260.655 349.372L260.645 349.382Z" fill="#101010"/>
<path d="M258.379 330.808C258.379 330.808 263.079 326.36 266.143 329.647C269.524 333.269 265.317 343.642 257.692 342.454L258.379 330.808Z" fill="#F9AE83"/>
<path d="M257.785 340.104C258.119 340.141 258.444 339.928 258.528 339.594C259.819 334.244 263.134 333.808 263.274 333.789C263.645 333.743 263.914 333.418 263.877 333.046C263.84 332.675 263.506 332.405 263.134 332.443C262.958 332.461 258.732 332.944 257.2 339.278C257.116 339.64 257.339 340.011 257.702 340.095C257.729 340.095 257.757 340.104 257.776 340.104H257.785Z" fill="#F58A69"/>
<path d="M262.512 337.197C262.67 337.216 262.837 337.179 262.986 337.077C263.292 336.863 263.366 336.445 263.153 336.139C263.106 336.064 261.955 334.439 259.68 334.653C259.308 334.69 259.03 335.024 259.067 335.396C259.104 335.767 259.438 336.046 259.81 336.009C261.268 335.869 262.011 336.872 262.038 336.919C262.15 337.077 262.326 337.179 262.512 337.197V337.197Z" fill="#F58A69"/>
<path d="M235.673 347.385C239.137 347.812 241.124 345.778 241.217 345.676C241.477 345.407 241.468 344.97 241.189 344.72C240.92 344.46 240.493 344.469 240.233 344.738C240.14 344.831 238.153 346.818 234.651 345.788C234.299 345.685 233.918 345.89 233.806 346.243C233.704 346.605 233.909 346.976 234.261 347.088C234.754 347.236 235.227 347.329 235.673 347.385V347.385Z" fill="#F58A69"/>
<path d="M233.751 335.832C233.955 335.86 234.169 335.795 234.317 335.637C234.577 335.368 234.577 334.941 234.308 334.681L232.683 333.083L234.289 332.87C234.559 332.832 234.782 332.647 234.856 332.387L236.072 328.18C236.175 327.818 235.97 327.446 235.608 327.335C235.246 327.232 234.874 327.437 234.763 327.799L233.676 331.579L231.122 331.913C230.862 331.95 230.649 332.127 230.565 332.368C230.482 332.619 230.547 332.888 230.732 333.065L233.361 335.637C233.472 335.749 233.611 335.804 233.751 335.823V335.832Z" fill="#F58A69"/>
<path d="M251.702 433.623C251.702 433.623 248.712 431.71 245.851 431.069C242.991 430.428 239.982 429.88 238.208 429.518C236.082 429.082 236.5 431.106 238.208 432.119C240.799 433.651 242.369 433.549 242.369 433.549C242.369 433.549 230.714 433.484 227.826 434.682C225.188 435.778 231.605 436.131 236.908 436.725C236.908 436.725 225.643 438.619 224.891 440.412C223.907 442.761 237.54 440.43 237.54 440.43C237.54 440.43 227.742 443.644 228.281 444.767C228.894 446.012 239.332 443.95 239.332 443.95C239.332 443.95 232.794 446.755 233.426 447.368C234.67 448.575 249.501 445.557 253.95 440.245C253.95 440.245 253.058 434.654 251.712 433.632L251.702 433.623Z" fill="#F9AE83"/>
<path d="M881.965 119.614C881.965 119.614 882.784 115.895 877.263 104.335C874.845 99.2641 856.899 78.7644 869.367 55.6309C882.554 31.1594 911.227 39.8421 916.195 63.5791C921.163 87.316 901.566 97.5285 900.738 119.609H881.97L881.965 119.614Z" fill="#FBBF13"/>
<g style="mix-blend-mode:multiply" opacity="0.47">
<path d="M916.195 63.579C913.075 48.679 900.617 39.7157 888.51 41.1565C898.853 42.3354 908.462 50.7515 911.147 63.579C916.115 87.316 896.519 97.5284 895.691 119.609H900.738C901.566 97.5284 921.163 87.316 916.195 63.579Z" fill="#FBBF13"/>
</g>
<path d="M888.407 121.635C888.407 121.635 890.063 94.7683 883.439 87.4096C876.814 80.0509 874.976 86.488 878.653 88.8832C882.334 91.2738 891.2 87.0447 890.998 75.6347C890.797 64.2246 886.016 68.6408 886.016 73.057C886.016 77.4732 891.354 86.8576 899.082 85.936C906.811 85.0144 904.051 77.4311 899.082 80.3035C894.114 83.1759 892.088 107.095 894.849 121.635" stroke="white" stroke-miterlimit="10"/>
<g style="mix-blend-mode:multiply">
<path d="M881.965 119.614H900.734V131.454C900.734 133.143 899.363 134.519 897.669 134.519H885.024C883.336 134.519 881.96 133.148 881.96 131.454V119.614H881.965Z" fill="#473E99"/>
</g>
<path d="M883.621 122.739C888.411 124.166 893.511 123.726 898.343 122.739C897.754 122.94 897.155 123.132 896.556 123.31C892.351 124.39 887.649 124.563 883.626 122.739H883.621Z" fill="#454546"/>
<path d="M883.621 126.491C888.411 127.918 893.511 127.478 898.343 126.491C897.754 126.692 897.155 126.884 896.556 127.062C892.351 128.142 887.649 128.315 883.626 126.491H883.621Z" fill="#454546"/>
<g style="mix-blend-mode:screen" opacity="0.53">
<g style="mix-blend-mode:screen">
<path d="M872.225 69.8196C873.32 60.7721 879.06 50.6158 888.51 48.4685C887.2 49.1422 885.951 49.8298 884.786 50.6953C878.456 55.322 874.882 62.6106 872.225 69.8196Z" fill="white"/>
</g>
</g>
<path d="M882.502 225.545L884.207 216.615L876.078 214.975C876.078 212.777 875.706 210.573 875.003 208.435L881.705 203.8L876.775 196.245L870.364 200.68C868.453 198.688 866.21 197.148 863.781 196.125L865.38 187.753L856.7 186L855.054 194.625C853.275 194.724 851.504 195.076 849.772 195.68L845.272 188.782L837.932 193.854L842.239 200.454C840.302 202.419 838.808 204.73 837.813 207.226L830.706 205.792L829 214.722L836.36 216.21C836.486 218.547 836.997 220.877 837.926 223.101L831.509 227.536L836.439 235.092L843.142 230.458C845.066 232.184 847.263 233.479 849.606 234.322L848 242.741L856.68 244.494L858.419 235.364C860.33 235.145 862.221 234.641 864.039 233.837L868.346 240.437L875.686 235.364L871.187 228.473C872.388 227.058 873.37 225.498 874.133 223.838L882.515 225.531L882.502 225.545ZM860.701 221.966C856.992 224.529 851.942 223.513 849.453 219.695C846.958 215.878 847.953 210.686 851.663 208.116C855.373 205.553 860.423 206.569 862.911 210.387C865.407 214.204 864.411 219.396 860.701 221.966Z" fill="#FF6300"/>
<path d="M912.439 560.74C933.728 549.406 951.799 534.746 940.371 528.067C928.937 521.381 898.317 547.195 885.682 575.393L879.092 583.958C888.661 563.575 889.358 535.364 878.999 531.002C868.706 526.666 869.947 545.482 873.949 562.486C876.995 575.426 876.019 584.595 875.064 589.196L843.939 629.637C858.997 597.31 860.052 552.786 843.667 545.881C827.335 539.002 829.306 568.86 835.651 595.836C840.442 616.219 838.962 630.713 837.456 638.063L831.251 646.123C832.479 647.418 833.713 648.706 834.961 649.987L871.991 601.878C876.802 600.158 883.837 598.458 893.174 598.206C910.621 597.728 929.129 594.123 922.307 585.272C916.388 577.597 895.437 582.398 878.714 593.14L891.522 576.502C896.359 572.033 903.261 565.633 912.446 560.746L912.439 560.74Z" fill="#FF6300"/>
</g>
<defs>
<linearGradient id="paint0_linear_326_1672" x1="249.706" y1="138.941" x2="274.492" y2="3.74272" gradientUnits="userSpaceOnUse">
<stop stop-color="#4C57A6"/>
<stop offset="1" stop-color="#5560AB"/>
</linearGradient>
<clipPath id="clip0_326_1672">
<rect width="993.269" height="655.96" fill="white"/>
</clipPath>
</defs>
</svg>
