<svg width="206" height="177" viewBox="0 0 206 177" fill="none" xmlns="http://www.w3.org/2000/svg">
<path d="M101.806 0.0343018L26.4551 46.3744L101.806 88.6838V0.0343018Z" fill="#4219D8"/>
<path d="M0.666382 77.4017L26.5111 46.3578L102.264 88.8681L76.4207 122.129L0.666382 77.4017Z" fill="#997BFF"/>
<path d="M181.993 45.9716L101.806 0.0355225V91.1018L181.993 45.9716Z" fill="#6237FF"/>
<path d="M25.6492 126.158V92.159L76.3542 121.843L101.862 89.3243L104.196 176.032L25.6492 126.158Z" fill="#6237FA"/>
<path d="M103.613 176.124L101.814 89.042L103.156 90.3043L117.169 105.055L131.889 120.697L182.602 91.968L183.202 133.009L103.613 176.124Z" fill="#8662FF"/>
<path d="M132.027 120.92L101.602 88.8343L181.905 45.9341L205.767 79.0134L132.027 120.92Z" fill="#997BFF"/>
<path fill-rule="evenodd" clip-rule="evenodd" d="M64.9224 38.8393C64.9224 37.3562 66.4801 36.389 67.8094 37.0468L92.49 49.2599C93.1717 49.5972 93.603 50.292 93.603 51.0525V72.8249C93.603 74.3271 92.0086 75.2931 90.6771 74.5976L65.9964 61.706C65.3362 61.3611 64.9224 60.678 64.9224 59.9332L64.9224 38.8393ZM81.1286 52.2512C80.4745 53.1536 78.8983 53.1269 77.6079 52.1916C76.3176 51.2563 75.8019 49.7666 76.456 48.8642C77.1101 47.9618 78.6864 47.9885 79.9767 48.9238C81.267 49.8591 81.7827 51.3488 81.1286 52.2512ZM75.7824 62.6203C78.9224 64.8963 82.6351 65.1312 84.075 63.1447C85.5149 61.1583 84.1367 57.7029 80.9967 55.4268C77.8567 53.1507 74.1439 52.9159 72.7041 54.9023C71.2642 56.8888 72.6424 60.3442 75.7824 62.6203Z" fill="white"/>
<path fill-rule="evenodd" clip-rule="evenodd" d="M120.919 34.8307C120.889 33.0296 121.829 31.3513 123.382 30.4373L150.887 14.2436C154.22 12.2812 158.424 14.6843 158.424 18.5523V44.1072C158.424 45.9479 157.412 47.6398 155.791 48.5113L128.691 63.0773C125.393 64.8502 121.388 62.5019 121.325 58.758L120.919 34.8307ZM137.318 32.5054C138.122 33.9581 140.061 33.9151 141.647 32.4095C143.234 30.9038 143.868 28.5055 143.064 27.0528C142.26 25.6001 140.321 25.6431 138.735 27.1488C137.148 28.6544 136.514 31.0527 137.318 32.5054ZM143.892 49.1978C140.031 52.8619 135.465 53.2399 133.695 50.0421C131.924 46.8443 133.619 41.2816 137.48 37.6175C141.342 33.9535 145.907 33.5755 147.678 36.7733C149.449 39.9711 147.754 45.5337 143.892 49.1978Z" fill="#E7E0FF"/>
<ellipse cx="78.7923" cy="50.5577" rx="2.88554" ry="2.01803" transform="rotate(35.937 78.7923 50.5577)" fill="#3B1CD8"/>
<ellipse cx="78.3896" cy="59.0236" rx="7.02201" ry="4.44227" transform="rotate(35.937 78.3896 59.0236)" fill="#3B1CD8"/>
<ellipse cx="3.96071" cy="3.00667" rx="3.96071" ry="3.00667" transform="matrix(-0.725399 0.688329 0.484419 0.874836 141.608 24.4225)" fill="#FE8406"/>
<ellipse cx="9.63844" cy="6.61854" rx="9.63844" ry="6.61854" transform="matrix(-0.725399 0.688329 0.484419 0.874836 144.472 30.9832)" fill="#FE8406"/>
</svg>
