<svg width="207" height="191" viewBox="0 0 207 191" fill="none" xmlns="http://www.w3.org/2000/svg">
<path d="M102.129 14.0967L26.7778 60.4368L102.129 102.746V14.0967Z" fill="#1BA4CF"/>
<path d="M0.989258 91.464L26.834 60.4202L102.587 102.931L76.7435 136.191L0.989258 91.464Z" fill="#96E6FC"/>
<path d="M182.316 60.034L102.129 14.0979V105.164L182.316 60.034Z" fill="#23C0F2"/>
<path d="M25.9722 140.221V106.221L76.6772 135.906L102.185 103.387L104.519 190.095L25.9722 140.221Z" fill="#21C1F6"/>
<path d="M103.936 190.186L102.137 103.104L103.479 104.367L117.492 119.118L132.212 134.759L182.925 106.03L183.525 147.071L103.936 190.186Z" fill="#64D8FF"/>
<path d="M132.35 134.982L101.925 102.897L182.228 59.9965L206.09 93.0758L132.35 134.982Z" fill="#9CE5FE"/>
<path fill-rule="evenodd" clip-rule="evenodd" d="M45.5293 66.1533C45.5293 64.6702 47.087 63.703 48.4163 64.3608L73.097 76.5739C73.7786 76.9112 74.21 77.6059 74.21 78.3664V100.139C74.21 101.641 72.6156 102.607 71.284 101.912L46.6033 89.0199C45.9432 88.6751 45.5293 87.992 45.5293 87.2472L45.5293 66.1533ZM61.7356 79.5652C61.0815 80.4675 59.5052 80.4409 58.2149 79.5056C56.9246 78.5703 56.4088 77.0805 57.0629 76.1781C57.7171 75.2757 59.2933 75.3024 60.5836 76.2377C61.8739 77.173 62.3897 78.6628 61.7356 79.5652ZM56.3893 89.9342C59.5293 92.2103 63.242 92.4451 64.6819 90.4587C66.1218 88.4723 64.7436 85.0168 61.6036 82.7408C58.4636 80.4647 54.7509 80.2299 53.311 82.2163C51.8711 84.2027 53.2493 87.6582 56.3893 89.9342Z" fill="white"/>
<path fill-rule="evenodd" clip-rule="evenodd" d="M114.928 13.5408C114.928 12.0424 116.515 11.0762 117.846 11.7639L148.795 27.7516C149.459 28.095 149.877 28.7805 149.877 29.5285V58.4174C149.877 59.9354 148.252 60.9001 146.919 60.1733L115.971 43.2973C115.328 42.9469 114.928 42.2734 114.928 41.5414L114.928 13.5408ZM134.676 31.4152C133.879 32.5631 131.959 32.5292 130.386 31.3394C128.814 30.1496 128.186 28.2545 128.983 27.1066C129.78 25.9586 131.7 25.9926 133.273 27.1824C134.845 28.3722 135.473 30.2672 134.676 31.4152ZM128.162 44.6056C131.988 47.501 136.512 47.7997 138.267 45.2727C140.021 42.7458 138.342 38.3502 134.515 35.4548C130.689 32.5595 126.165 32.2608 124.411 34.7877C122.656 37.3146 124.336 41.7102 128.162 44.6056Z" fill="white"/>
<path fill-rule="evenodd" clip-rule="evenodd" d="M88.9262 70.7082C88.8704 69.8373 89.3857 69.0308 90.1994 68.7154L111.249 60.557C112.522 60.0635 113.904 60.9628 113.969 62.3267L114.926 82.4255C114.965 83.248 114.496 84.0104 113.745 84.3465L93.0953 93.5779C91.8223 94.147 90.3723 93.2716 90.2831 91.88L88.9262 70.7082ZM100.545 73.2821C101.147 74.1451 102.446 74.0285 103.447 73.0218C104.447 72.0152 104.77 70.4995 104.168 69.6366C103.566 68.7737 102.267 68.8902 101.266 69.8969C100.266 70.9036 99.9426 72.4192 100.545 73.2821ZM105.673 83.3216C103.238 85.7713 100.189 86.2174 98.8636 84.3178C97.5381 82.4183 98.4375 78.8924 100.873 76.4427C103.308 73.9929 106.356 73.5468 107.682 75.4464C109.007 77.3459 108.108 80.8718 105.673 83.3216Z" fill="white"/>
<path fill-rule="evenodd" clip-rule="evenodd" d="M62.1655 1.35518C59.5007 -0.076691 56.2722 1.85359 56.2722 4.87874L56.2722 31.0063C56.2722 32.4463 57.0463 33.7752 58.2988 34.4856L86.6671 50.5754C89.3336 52.0878 92.6405 50.1616 92.6405 47.096V20.1217C92.6405 18.6489 91.8311 17.2952 90.5338 16.5981L62.1655 1.35518ZM70.809 33.9584C75.2018 37.1425 80.3958 37.471 82.4102 34.6921C84.4246 31.9131 82.4965 27.079 78.1037 23.8948C73.7109 20.7107 68.5169 20.3822 66.5025 23.1611C64.4881 25.9401 66.4162 30.7742 70.809 33.9584Z" fill="#E6E1FF"/>
<path fill-rule="evenodd" clip-rule="evenodd" d="M123.471 82.5561C123.44 80.7549 124.381 79.0766 125.933 78.1627L153.438 61.9689C156.772 60.0065 160.975 62.4097 160.975 66.2776V91.8325C160.975 93.6733 159.964 95.3651 158.342 96.2366L131.243 110.803C127.944 112.575 123.94 110.227 123.876 106.483L123.471 82.5561ZM139.869 80.2307C140.674 81.6834 142.612 81.6405 144.199 80.1348C145.786 78.6291 146.42 76.2309 145.615 74.7782C144.811 73.3255 142.873 73.3684 141.286 74.8741C139.699 76.3798 139.065 78.778 139.869 80.2307ZM146.444 96.9232C142.582 100.587 138.017 100.965 136.246 97.7674C134.475 94.5696 136.17 89.007 140.032 85.3429C143.893 81.6788 148.459 81.3008 150.229 84.4986C152 87.6964 150.305 93.2591 146.444 96.9232Z" fill="#E7E0FF"/>
<ellipse cx="2.57003" cy="1.90528" rx="2.57003" ry="1.90528" transform="matrix(-0.704969 0.709238 0.572257 0.820074 103.078 68.0741)" fill="#14A2ED"/>
<ellipse cx="6.2542" cy="4.19407" rx="6.2542" ry="4.19407" transform="matrix(-0.704969 0.709238 0.572257 0.820074 105.281 72.007)" fill="#14A2ED"/>
<ellipse cx="59.3993" cy="77.8716" rx="2.88554" ry="2.01803" transform="rotate(35.937 59.3993 77.8716)" fill="#FF9849"/>
<ellipse cx="3.57011" cy="2.53041" rx="3.57011" ry="2.53041" transform="matrix(0.797418 0.603428 -0.57034 0.821409 130.426 25.0281)" fill="#13A2ED"/>
<ellipse cx="58.9963" cy="86.3376" rx="7.02201" ry="4.44227" transform="rotate(35.937 58.9963 86.3376)" fill="#FF9849"/>
<ellipse cx="8.68792" cy="5.57016" rx="8.68792" ry="5.57016" transform="matrix(0.797418 0.603428 -0.57034 0.821409 127.588 30.2123)" fill="#13A2ED"/>
<ellipse cx="3.96071" cy="3.00667" rx="3.96071" ry="3.00667" transform="matrix(-0.725399 0.688329 0.484419 0.874836 144.159 72.1478)" fill="#401DDC"/>
<ellipse cx="9.63844" cy="6.61854" rx="9.63844" ry="6.61854" transform="matrix(-0.725399 0.688329 0.484419 0.874836 147.023 78.7085)" fill="#401DDC"/>
<ellipse cx="75.0197" cy="17.083" rx="4.03682" ry="2.82319" transform="rotate(35.937 75.0197 17.083)" fill="#1BA1F0"/>
<ellipse cx="74.4564" cy="28.9266" rx="9.82366" ry="6.21464" transform="rotate(35.937 74.4564 28.9266)" fill="#1998E2"/>
</svg>
