<svg width="74" height="74" viewBox="0 0 74 74" fill="none" xmlns="http://www.w3.org/2000/svg">
<g clip-path="url(#clip0_133_981)">
<path d="M37 0C29.0176 0 22.5217 6.7533 22.5217 15.0526V37C22.5217 45.3009 29.0176 52.0526 37 52.0526C44.9823 52.0526 51.4782 45.3009 51.4782 37V15.0526C51.4782 6.7533 44.9823 0 37 0ZM37 48.8352C31.3116 48.8352 26.6062 44.3743 25.8549 38.6087H48.1434C47.3938 44.3759 42.6883 48.8352 37 48.8352ZM48.2609 35.3913H25.7391V15.0526C25.7391 8.52609 30.7904 3.21739 37 3.21739C43.2095 3.21739 48.2609 8.52609 48.2609 15.0526V35.3913Z" fill="#FF6300"/>
<path d="M59.5217 28.9565C58.6337 28.9565 57.913 29.6772 57.913 30.5652V37C57.913 48.5311 48.5311 57.9131 36.9999 57.9131C25.4688 57.9131 16.0869 48.5311 16.0869 37V30.5652C16.0869 29.6772 15.3662 28.9565 14.4782 28.9565C13.5902 28.9565 12.8695 29.6772 12.8695 30.5652V37C12.8695 49.7618 22.8354 60.2151 35.3912 61.0484V70.7826H27.3478C26.4598 70.7826 25.7391 71.5033 25.7391 72.3913C25.7391 73.2793 26.4598 74 27.3478 74H46.6521C47.5401 74 48.2608 73.2793 48.2608 72.3913C48.2608 71.5033 47.5401 70.7826 46.6521 70.7826H38.6086V61.0484C51.1645 60.2151 61.1304 49.7618 61.1304 37V30.5652C61.1304 29.6772 60.4097 28.9565 59.5217 28.9565Z" fill="#FF6300"/>
</g>
<defs>
<clipPath id="clip0_133_981">
<rect width="74" height="74" fill="white"/>
</clipPath>
</defs>
</svg>
