<svg width="68" height="68" viewBox="0 0 68 68" fill="none" xmlns="http://www.w3.org/2000/svg">
<path d="M63.2188 7.4375H4.78125C3.79531 7.43859 2.85007 7.83074 2.1529 8.5279C1.45574 9.22507 1.06359 10.1703 1.0625 11.1562V48.3438C1.06359 49.3297 1.45574 50.2749 2.1529 50.9721C2.85007 51.6693 3.79531 52.0614 4.78125 52.0625H26.0552L24.7802 55.25H19.125C18.8432 55.25 18.573 55.3619 18.3737 55.5612C18.1744 55.7605 18.0625 56.0307 18.0625 56.3125V58.4375H11.6875C11.4057 58.4375 11.1355 58.5494 10.9362 58.7487C10.7369 58.948 10.625 59.2182 10.625 59.5C10.625 59.7818 10.7369 60.052 10.9362 60.2513C11.1355 60.4506 11.4057 60.5625 11.6875 60.5625H56.3125C56.5943 60.5625 56.8645 60.4506 57.0638 60.2513C57.2631 60.052 57.375 59.7818 57.375 59.5C57.375 59.2182 57.2631 58.948 57.0638 58.7487C56.8645 58.5494 56.5943 58.4375 56.3125 58.4375H49.9375V56.3125C49.9375 56.0307 49.8256 55.7605 49.6263 55.5612C49.427 55.3619 49.1568 55.25 48.875 55.25H43.2198L41.9448 52.0625H63.2188C64.2047 52.0614 65.1499 51.6693 65.8471 50.9721C66.5443 50.2749 66.9364 49.3297 66.9375 48.3438V11.1562C66.9364 10.1703 66.5443 9.22507 65.8471 8.5279C65.1499 7.83074 64.2047 7.43859 63.2188 7.4375ZM47.8125 57.375V58.4375H20.1875V57.375H47.8125ZM27.0698 55.25L28.3448 52.0625H39.6552L40.9302 55.25H27.0698ZM64.8125 48.3438C64.8121 48.7663 64.6441 49.1715 64.3453 49.4703C64.0465 49.7691 63.6413 49.9371 63.2188 49.9375H4.78125C4.35867 49.9371 3.9535 49.7691 3.65469 49.4703C3.35588 49.1715 3.18785 48.7663 3.1875 48.3438V45.6875H64.8125V48.3438ZM64.8125 43.5625H3.1875V11.1562C3.18785 10.7337 3.35588 10.3285 3.65469 10.0297C3.9535 9.73088 4.35867 9.56285 4.78125 9.5625H63.2188C63.6413 9.56285 64.0465 9.73088 64.3453 10.0297C64.6441 10.3285 64.8121 10.7337 64.8125 11.1562V43.5625Z" fill="#FD6F00"/>
<path d="M29.167 34.8882C29.2836 34.9648 29.4142 35.0176 29.5513 35.0437C29.6884 35.0698 29.8293 35.0686 29.9659 35.0402C30.1025 35.0119 30.2322 34.9569 30.3476 34.8784C30.4629 34.7999 30.5617 34.6994 30.6383 34.5828L39.0055 21.8328C39.1601 21.5972 39.2148 21.3098 39.1576 21.0339C39.1003 20.758 38.9358 20.5161 38.7003 20.3615C38.4647 20.2068 38.1773 20.1521 37.9014 20.2094C37.6255 20.2666 37.3836 20.4311 37.229 20.6667L28.8618 33.4167C28.7852 33.5333 28.7323 33.6639 28.7062 33.801C28.68 33.9381 28.6812 34.079 28.7095 34.2157C28.7379 34.3523 28.7928 34.4821 28.8713 34.5975C28.9498 34.7129 29.0503 34.8117 29.167 34.8882Z" fill="#FD6F00"/>
<path d="M40.7573 34.8162C40.9738 34.9966 41.2531 35.0836 41.5337 35.0581C41.8143 35.0326 42.0733 34.8966 42.2537 34.6801L47.5662 28.3051C47.7253 28.1142 47.8124 27.8735 47.8124 27.625C47.8124 27.3764 47.7253 27.1358 47.5662 26.9448L42.2537 20.5698C42.1647 20.4618 42.0551 20.3723 41.9314 20.3067C41.8077 20.2411 41.6723 20.2006 41.5328 20.1875C41.3934 20.1744 41.2528 20.189 41.119 20.2305C40.9853 20.272 40.861 20.3394 40.7534 20.4291C40.6459 20.5187 40.5571 20.6287 40.4921 20.7528C40.4272 20.8769 40.3875 21.0126 40.3752 21.1521C40.3629 21.2916 40.3783 21.4321 40.4205 21.5657C40.4627 21.6992 40.5309 21.823 40.6212 21.9301L45.3668 27.625L40.6212 33.3198C40.4408 33.5363 40.3538 33.8156 40.3793 34.0962C40.4049 34.3769 40.5408 34.6359 40.7573 34.8162Z" fill="#FD6F00"/>
<path d="M25.7462 34.6801C25.8352 34.7882 25.9448 34.8776 26.0685 34.9432C26.1922 35.0088 26.3276 35.0494 26.4671 35.0624C26.6065 35.0755 26.7471 35.0609 26.8809 35.0195C27.0146 34.978 27.1389 34.9105 27.2465 34.8209C27.354 34.7312 27.4428 34.6212 27.5078 34.4971C27.5727 34.373 27.6124 34.2374 27.6247 34.0979C27.637 33.9584 27.6216 33.8178 27.5794 33.6843C27.5372 33.5508 27.469 33.4269 27.3787 33.3198L22.6331 27.625L27.3787 21.9301C27.469 21.823 27.5372 21.6992 27.5794 21.5657C27.6216 21.4321 27.637 21.2916 27.6247 21.1521C27.6124 21.0126 27.5727 20.8769 27.5078 20.7528C27.4428 20.6287 27.354 20.5187 27.2465 20.4291C27.1389 20.3394 27.0146 20.272 26.8809 20.2305C26.7471 20.189 26.6065 20.1744 26.4671 20.1875C26.3276 20.2006 26.1922 20.2411 26.0685 20.3067C25.9448 20.3723 25.8352 20.4618 25.7462 20.5698L20.4337 26.9448C20.2746 27.1358 20.1875 27.3764 20.1875 27.625C20.1875 27.8735 20.2746 28.1142 20.4337 28.3051L25.7462 34.6801Z" fill="#FD6F00"/>
</svg>
