<svg width="482" height="526" viewBox="0 0 482 526" fill="none" xmlns="http://www.w3.org/2000/svg">
<g style="mix-blend-mode:multiply">
<path d="M82.3126 162.304C82.3126 162.304 43.3295 157.687 13.9974 144.396C13.9974 144.396 17.8476 140.031 19.5878 133.328C19.5878 133.328 43.3435 150.403 70.4301 153.766L82.3126 162.304V162.304Z" fill="#473E99"/>
</g>
<g style="mix-blend-mode:multiply">
<path d="M119.625 107.518C119.625 107.518 122.442 154.421 81.288 159.076L82.3125 150.277C82.3125 150.277 116.861 146.543 115.06 119.99L119.625 107.518Z" fill="#473E99"/>
</g>
<path d="M176.03 348.345H57.6867C55.3616 348.345 53.4763 346.46 53.4763 344.135V211.949C53.4763 209.624 55.3616 207.738 57.6867 207.738H176.03C178.355 207.738 180.24 209.624 180.24 211.949V344.135C180.24 346.46 178.355 348.345 176.03 348.345ZM176.03 348.345C176.03 348.345 178.355 348.345 176.03 348.345Z" stroke="white" stroke-width="2" stroke-miterlimit="10" stroke-linecap="round"/>
<path d="M298.883 302.864H247.643V319.5H298.883V302.864Z" fill="#212121"/>
<g style="mix-blend-mode:multiply" opacity="0.39">
<path d="M298.883 302.864H282.009V319.5H298.883V302.864Z" fill="#B6B5BA"/>
</g>
<path d="M409.99 111.883H145.145C137.426 111.883 131.167 118.142 131.167 125.861V292.881C131.167 300.6 137.426 306.859 145.145 306.859H251.947V316.192C241.075 316.37 232.318 325.226 232.318 336.14H322.817C322.817 325.226 314.054 316.375 303.187 316.192V306.859H409.99C417.708 306.859 423.968 300.6 423.968 292.881V125.861C423.968 118.142 417.708 111.883 409.99 111.883V111.883Z" fill="#212121"/>
<path d="M451.452 198.045H307.566C305.241 198.045 303.356 196.16 303.356 193.835V57.373C303.356 55.0479 305.241 53.1626 307.566 53.1626H451.452C453.777 53.1626 455.663 55.0479 455.663 57.373V193.835C455.663 196.16 453.777 198.045 451.452 198.045C451.452 198.045 453.777 198.045 451.452 198.045V198.045Z" stroke="white" stroke-width="2" stroke-miterlimit="10" stroke-linecap="round"/>
<path d="M415.103 111.883H131.429C128.909 111.883 126.867 113.925 126.867 116.444V302.298C126.867 304.817 128.909 306.859 131.429 306.859H415.103C417.622 306.859 419.664 304.817 419.664 302.298V116.444C419.664 113.925 417.622 111.883 415.103 111.883Z" fill="#212121"/>
<path d="M419.664 126.521H126.867V282.902H419.664V126.521Z" fill="#EDEDED"/>
<g style="mix-blend-mode:multiply" opacity="0.5">
<path d="M118.971 73.5687C127.237 78.8738 131.779 89.423 127.134 92.2627C123.686 94.3725 112.285 98.1337 104.244 100.651C100.964 101.68 98.0592 98.2694 99.5843 95.1912C104.534 85.222 113.301 69.9338 118.966 73.5687H118.971ZM51.2028 84.8571C54.3137 75.5429 63.4221 68.5444 67.319 72.3524C70.2101 75.178 76.6613 85.3016 81.0728 92.4779C82.8739 95.4064 80.2869 99.06 76.9233 98.3349C66.0419 95.9865 49.0695 91.2475 51.1981 84.8618L51.2028 84.8571ZM84.1417 122.03C83.2902 133.126 80.8997 150.59 74.2801 149.341C64.6291 147.521 56.461 139.447 59.703 135.073C62.1075 131.826 71.2674 124.06 77.7747 118.713C80.4319 116.528 84.4037 118.601 84.1417 122.03ZM46.5948 120.823C42.1879 112.047 43.6569 100.655 49.0976 100.58C53.1395 100.524 64.8677 103.097 73.0638 105.029C76.4087 105.815 77.1712 110.231 74.2895 112.098C64.9519 118.152 49.6169 126.844 46.5948 120.823V120.823ZM86.0504 91.6639C81.1243 81.6807 74.2848 65.4381 80.6143 63.1364C89.8444 59.7822 100.988 62.5704 100.426 67.9877C100.01 72.0062 96.085 83.3554 93.2126 91.2709C92.0384 94.5035 87.5661 94.7468 86.0457 91.6639H86.0504ZM113.754 144.63C106.456 151.198 95.0792 152.793 93.5682 147.563C92.4454 143.68 91.8279 131.69 91.5238 123.274C91.3975 119.84 95.4535 117.936 98.0218 120.224C106.33 127.63 118.76 140.125 113.754 144.63V144.63ZM124.037 128.219C120.271 126.755 110.363 119.971 103.486 115.111C100.679 113.127 101.629 108.748 105.002 108.098C115.93 105.988 133.403 103.682 133.95 110.391C134.745 120.177 129.113 130.189 124.037 128.219Z" fill="#BDBDBD"/>
</g>
<path d="M247.98 316.173H298.556C309.582 316.173 318.517 325.113 318.517 336.135H228.018C228.018 325.109 236.958 316.173 247.98 316.173Z" fill="#212121"/>
<g style="mix-blend-mode:multiply" opacity="0.39">
<path d="M298.551 316.173H278.922C289.948 316.173 298.883 325.113 298.883 336.135H318.513C318.513 325.109 309.573 316.173 298.551 316.173Z" fill="#B6B5BA"/>
</g>
<path d="M86.3873 137.641C104.832 137.641 119.785 122.688 119.785 104.243C119.785 85.7986 104.832 70.846 86.3873 70.846C67.9424 70.846 52.9899 85.7986 52.9899 104.243C52.9899 122.688 67.9424 137.641 86.3873 137.641Z" fill="#5C4EA0"/>
<g style="mix-blend-mode:multiply">
<path d="M86.3872 125.651C98.2101 125.651 107.794 116.066 107.794 104.243C107.794 92.4205 98.2101 82.8362 86.3872 82.8362C74.5643 82.8362 64.98 92.4205 64.98 104.243C64.98 116.066 74.5643 125.651 86.3872 125.651Z" fill="#473E99"/>
</g>
<path d="M86.3872 46.0004C54.2202 46.0004 28.1488 72.0764 28.1488 104.239C28.1488 136.401 54.2249 162.477 86.3872 162.477C118.55 162.477 144.626 136.401 144.626 104.239C144.626 72.0764 118.55 46.0004 86.3872 46.0004ZM116.103 70.7011C124.369 76.0061 128.912 86.5553 124.266 89.395C120.818 91.5048 109.418 95.2661 101.376 97.7829C98.0967 98.8121 95.1915 95.4017 96.7166 92.3235C101.666 82.3544 110.433 67.0661 116.098 70.7011H116.103ZM48.3351 81.9894C51.446 72.6752 60.5544 65.6767 64.4513 69.4847C67.3424 72.3103 73.7936 82.4339 78.2051 89.6102C80.0062 92.5387 77.4192 96.1924 74.0556 95.4672C63.1742 93.1188 46.2018 88.3798 48.3304 81.9941L48.3351 81.9894ZM43.7224 117.955C39.3156 109.179 40.7845 97.7876 46.2252 97.7127C50.2671 97.6566 61.9953 100.23 70.1914 102.162C73.5363 102.948 74.2989 107.364 71.4171 109.23C62.0795 115.284 46.7445 123.976 43.7224 117.955V117.955ZM81.2693 119.162C80.4179 130.259 78.0273 147.722 71.4078 146.473C61.7567 144.653 53.5886 136.579 56.8306 132.205C59.2352 128.958 68.395 121.192 74.9023 115.845C77.5595 113.661 81.5313 115.733 81.2693 119.162V119.162ZM83.1733 88.7962C78.2472 78.813 71.4078 62.5704 77.7373 60.2688C86.9673 56.9145 98.1107 59.7027 97.5493 65.12C97.133 69.1385 93.208 80.4878 90.3356 88.4032C89.1614 91.6358 84.689 91.8791 83.1686 88.7962H83.1733ZM110.877 141.762C103.579 148.33 92.2022 149.926 90.6911 144.696C89.5684 140.813 88.9509 128.823 88.6468 120.407C88.5205 116.973 92.5764 115.069 95.1447 117.356C103.453 124.762 115.883 137.257 110.877 141.762V141.762ZM121.16 125.351C117.394 123.887 107.486 117.104 100.609 112.243C97.8019 110.26 98.7516 105.881 102.125 105.231C113.053 103.121 130.526 100.814 131.073 107.523C131.868 117.31 126.236 127.321 121.16 125.351Z" fill="#FAB317"/>
<g style="mix-blend-mode:multiply" opacity="0.34">
<g style="mix-blend-mode:multiply">
<path d="M100.628 47.764C121.974 56.4046 137.038 77.3159 137.038 101.759C137.038 133.926 110.962 159.998 78.7992 159.998C73.8872 159.998 69.1154 159.38 64.5589 158.239C71.3001 160.966 78.6682 162.482 86.3872 162.482C118.554 162.482 144.626 136.406 144.626 104.243C144.626 76.9932 125.908 54.1169 100.628 47.764V47.764Z" fill="#F7A81C"/>
</g>
</g>
<path d="M92.5531 104.243C92.5531 100.838 89.7929 98.0776 86.3872 98.0776C82.9815 98.0776 80.2214 100.838 80.2214 104.243C80.2214 107.649 82.9815 110.409 86.3872 110.409C89.7929 110.409 92.5531 107.649 92.5531 104.243Z" fill="white"/>
<path d="M189.255 75.3558C189.255 75.3558 197.353 72.0437 197.718 64.3154C197.718 64.3154 199.14 72.2308 207.248 74.4342C207.248 74.4342 199.519 80.1369 198.251 85.4747C198.251 85.4747 195.328 76.0903 189.255 75.3558V75.3558Z" fill="white"/>
<path d="M66.2056 328.421C66.2056 328.421 76.1934 324.337 76.6472 314.803C76.6472 314.803 78.4015 324.566 88.3988 327.289C88.3988 327.289 78.8647 334.325 77.3022 340.907C77.3022 340.907 73.6953 329.333 66.2056 328.421Z" fill="white"/>
<path d="M43.7739 383.45C43.7739 383.45 59.0995 377.181 59.7966 362.553C59.7966 362.553 62.4912 377.532 77.8309 381.71C77.8309 381.71 63.2023 392.507 60.8024 402.607C60.8024 402.607 55.2681 384.844 43.7739 383.45V383.45Z" fill="white"/>
<path d="M113.16 37.4253C113.16 37.4253 121.258 34.1131 121.623 26.3848C121.623 26.3848 123.045 34.3002 131.152 36.5037C131.152 36.5037 123.424 42.2063 122.156 47.5441C122.156 47.5441 119.233 38.1597 113.16 37.4253Z" fill="white"/>
<path d="M199.304 52.9427C199.304 52.9427 205.068 50.585 205.33 45.0834C205.33 45.0834 206.345 50.7159 212.113 52.2878C212.113 52.2878 206.611 56.3484 205.708 60.1471C205.708 60.1471 203.627 53.4667 199.304 52.9427V52.9427Z" fill="white"/>
<path d="M434.391 229.67C434.391 229.67 441.502 226.76 441.824 219.976C441.824 219.976 443.073 226.924 450.189 228.865C450.189 228.865 443.401 233.875 442.288 238.558C442.288 238.558 439.719 230.315 434.386 229.67H434.391Z" fill="white"/>
<path d="M90.186 315.696C90.186 315.696 97.2968 312.787 97.6195 306.003C97.6195 306.003 98.8686 312.95 105.984 314.892C105.984 314.892 99.1961 319.902 98.0827 324.585C98.0827 324.585 95.5144 316.342 90.1813 315.696H90.186Z" fill="white"/>
<path d="M404.488 139.914H140.387V261.065H404.488V139.914Z" fill="#5C4EA0"/>
<path d="M259.175 243.648C258.679 243.648 258.277 243.246 258.277 242.75V196.59C258.277 196.094 258.679 195.692 259.175 195.692C259.671 195.692 260.073 196.094 260.073 196.59V242.75C260.073 243.246 259.671 243.648 259.175 243.648Z" fill="#FAB317"/>
<path d="M263.058 232.364C262.562 232.364 262.16 231.962 262.16 231.466V207.879C262.16 207.383 262.562 206.98 263.058 206.98C263.554 206.98 263.956 207.383 263.956 207.879V231.466C263.956 231.962 263.554 232.364 263.058 232.364Z" fill="#FAB317"/>
<path d="M266.941 237.618C266.445 237.618 266.043 237.215 266.043 236.72V202.62C266.043 202.125 266.445 201.722 266.941 201.722C267.437 201.722 267.839 202.125 267.839 202.62V236.72C267.839 237.215 267.437 237.618 266.941 237.618Z" fill="#FAB317"/>
<path d="M274.707 230.928C274.211 230.928 273.808 230.526 273.808 230.03V209.31C273.808 208.814 274.211 208.412 274.707 208.412C275.202 208.412 275.605 208.814 275.605 209.31V230.03C275.605 230.526 275.202 230.928 274.707 230.928Z" fill="#FAB317"/>
<path d="M270.824 240.607C270.328 240.607 269.926 240.205 269.926 239.709V199.636C269.926 199.14 270.328 198.738 270.824 198.738C271.32 198.738 271.722 199.14 271.722 199.636V239.709C271.722 240.205 271.32 240.607 270.824 240.607Z" fill="#FAB317"/>
<path d="M239.466 243.648C238.97 243.648 238.568 243.246 238.568 242.75V196.59C238.568 196.094 238.97 195.692 239.466 195.692C239.962 195.692 240.364 196.094 240.364 196.59V242.75C240.364 243.246 239.962 243.648 239.466 243.648V243.648Z" fill="#FAB317"/>
<path d="M243.349 232.364C242.853 232.364 242.451 231.962 242.451 231.466V207.879C242.451 207.383 242.853 206.98 243.349 206.98C243.845 206.98 244.247 207.383 244.247 207.879V231.466C244.247 231.962 243.845 232.364 243.349 232.364Z" fill="#FAB317"/>
<path d="M247.232 237.618C246.736 237.618 246.333 237.215 246.333 236.72V202.62C246.333 202.125 246.736 201.722 247.232 201.722C247.728 201.722 248.13 202.125 248.13 202.62V236.72C248.13 237.215 247.728 237.618 247.232 237.618Z" fill="#FAB317"/>
<path d="M254.997 230.928C254.501 230.928 254.099 230.526 254.099 230.03V209.31C254.099 208.814 254.501 208.412 254.997 208.412C255.493 208.412 255.896 208.814 255.896 209.31V230.03C255.896 230.526 255.493 230.928 254.997 230.928Z" fill="#FAB317"/>
<path d="M251.115 240.607C250.619 240.607 250.216 240.205 250.216 239.709V199.636C250.216 199.14 250.619 198.738 251.115 198.738C251.61 198.738 252.013 199.14 252.013 199.636V239.709C252.013 240.205 251.61 240.607 251.115 240.607Z" fill="#FAB317"/>
<path d="M219.93 243.648C219.434 243.648 219.032 243.246 219.032 242.75V196.59C219.032 196.094 219.434 195.692 219.93 195.692C220.426 195.692 220.828 196.094 220.828 196.59V242.75C220.828 243.246 220.426 243.648 219.93 243.648Z" fill="#FAB317"/>
<path d="M223.813 232.364C223.317 232.364 222.915 231.962 222.915 231.466V207.879C222.915 207.383 223.317 206.98 223.813 206.98C224.309 206.98 224.711 207.383 224.711 207.879V231.466C224.711 231.962 224.309 232.364 223.813 232.364Z" fill="#FAB317"/>
<path d="M227.696 237.618C227.2 237.618 226.797 237.215 226.797 236.72V202.62C226.797 202.125 227.2 201.722 227.696 201.722C228.192 201.722 228.594 202.125 228.594 202.62V236.72C228.594 237.215 228.192 237.618 227.696 237.618Z" fill="#FAB317"/>
<path d="M235.461 230.928C234.965 230.928 234.563 230.526 234.563 230.03V209.31C234.563 208.814 234.965 208.412 235.461 208.412C235.957 208.412 236.36 208.814 236.36 209.31V230.03C236.36 230.526 235.957 230.928 235.461 230.928Z" fill="#FAB317"/>
<path d="M231.578 240.607C231.083 240.607 230.68 240.205 230.68 239.709V199.636C230.68 199.14 231.083 198.738 231.578 198.738C232.074 198.738 232.477 199.14 232.477 199.636V239.709C232.477 240.205 232.074 240.607 231.578 240.607Z" fill="#FAB317"/>
<path d="M200.399 243.648C199.903 243.648 199.5 243.246 199.5 242.75V196.59C199.5 196.094 199.903 195.692 200.399 195.692C200.895 195.692 201.297 196.094 201.297 196.59V242.75C201.297 243.246 200.895 243.648 200.399 243.648Z" fill="#FAB317"/>
<path d="M204.281 232.364C203.786 232.364 203.383 231.962 203.383 231.466V207.879C203.383 207.383 203.786 206.98 204.281 206.98C204.777 206.98 205.18 207.383 205.18 207.879V231.466C205.18 231.962 204.777 232.364 204.281 232.364Z" fill="#FAB317"/>
<path d="M208.164 237.618C207.668 237.618 207.266 237.215 207.266 236.72V202.62C207.266 202.125 207.668 201.722 208.164 201.722C208.66 201.722 209.063 202.125 209.063 202.62V236.72C209.063 237.215 208.66 237.618 208.164 237.618Z" fill="#FAB317"/>
<path d="M215.93 230.928C215.434 230.928 215.032 230.526 215.032 230.03V209.31C215.032 208.814 215.434 208.412 215.93 208.412C216.426 208.412 216.828 208.814 216.828 209.31V230.03C216.828 230.526 216.426 230.928 215.93 230.928Z" fill="#FAB317"/>
<path d="M212.047 240.607C211.551 240.607 211.149 240.205 211.149 239.709V199.636C211.149 199.14 211.551 198.738 212.047 198.738C212.543 198.738 212.945 199.14 212.945 199.636V239.709C212.945 240.205 212.543 240.607 212.047 240.607Z" fill="#FAB317"/>
<path d="M181.761 196.595C181.761 196.099 181.36 195.697 180.865 195.697C180.37 195.697 179.969 196.099 179.969 196.595V242.75C179.969 243.246 180.37 243.648 180.865 243.648C181.36 243.648 181.761 243.246 181.761 242.75V196.595Z" fill="#FAB317"/>
<path d="M184.75 232.364C184.254 232.364 183.852 231.962 183.852 231.466V207.879C183.852 207.383 184.254 206.981 184.75 206.981C185.246 206.981 185.648 207.383 185.648 207.879V231.466C185.648 231.962 185.246 232.364 184.75 232.364Z" fill="#FAB317"/>
<path d="M188.633 237.618C188.137 237.618 187.735 237.215 187.735 236.72V202.62C187.735 202.125 188.137 201.722 188.633 201.722C189.129 201.722 189.531 202.125 189.531 202.62V236.72C189.531 237.215 189.129 237.618 188.633 237.618Z" fill="#FAB317"/>
<path d="M196.399 230.928C195.903 230.928 195.501 230.526 195.501 230.03V209.31C195.501 208.814 195.903 208.412 196.399 208.412C196.895 208.412 197.297 208.814 197.297 209.31V230.03C197.297 230.526 196.895 230.928 196.399 230.928Z" fill="#FAB317"/>
<path d="M192.516 240.607C192.02 240.607 191.618 240.205 191.618 239.709V199.636C191.618 199.14 192.02 198.738 192.516 198.738C193.012 198.738 193.414 199.14 193.414 199.636V239.709C193.414 240.205 193.012 240.607 192.516 240.607Z" fill="#FAB317"/>
<path d="M161.331 243.648C160.836 243.648 160.433 243.246 160.433 242.75V196.59C160.433 196.094 160.836 195.692 161.331 195.692C161.827 195.692 162.23 196.094 162.23 196.59V242.75C162.23 243.246 161.827 243.648 161.331 243.648Z" fill="#FAB317"/>
<path d="M165.214 232.364C164.718 232.364 164.316 231.962 164.316 231.466V207.879C164.316 207.383 164.718 206.98 165.214 206.98C165.71 206.98 166.113 207.383 166.113 207.879V231.466C166.113 231.962 165.71 232.364 165.214 232.364Z" fill="#FAB317"/>
<path d="M169.097 237.618C168.601 237.618 168.199 237.215 168.199 236.72V202.62C168.199 202.125 168.601 201.722 169.097 201.722C169.593 201.722 169.995 202.125 169.995 202.62V236.72C169.995 237.215 169.593 237.618 169.097 237.618Z" fill="#FAB317"/>
<path d="M176.863 230.928C176.367 230.928 175.965 230.526 175.965 230.03V209.31C175.965 208.814 176.367 208.412 176.863 208.412C177.359 208.412 177.761 208.814 177.761 209.31V230.03C177.761 230.526 177.359 230.928 176.863 230.928Z" fill="#FAB317"/>
<path d="M173.878 199.636C173.878 199.14 173.477 198.738 172.982 198.738C172.488 198.738 172.086 199.14 172.086 199.636V239.704C172.086 240.2 172.488 240.602 172.982 240.602C173.477 240.602 173.878 240.2 173.878 239.704V199.636Z" fill="#FAB317"/>
<path d="M278.351 243.648C277.855 243.648 277.453 243.246 277.453 242.75V196.59C277.453 196.094 277.855 195.692 278.351 195.692C278.847 195.692 279.249 196.094 279.249 196.59V242.75C279.249 243.246 278.847 243.648 278.351 243.648Z" fill="#FAB317"/>
<path d="M282.234 232.364C281.738 232.364 281.335 231.962 281.335 231.466V207.879C281.335 207.383 281.738 206.98 282.234 206.98C282.73 206.98 283.132 207.383 283.132 207.879V231.466C283.132 231.962 282.73 232.364 282.234 232.364Z" fill="#FAB317"/>
<path d="M286.117 237.618C285.621 237.618 285.218 237.215 285.218 236.72V202.62C285.218 202.125 285.621 201.722 286.117 201.722C286.612 201.722 287.015 202.125 287.015 202.62V236.72C287.015 237.215 286.612 237.618 286.117 237.618Z" fill="#FAB317"/>
<path d="M293.882 230.928C293.386 230.928 292.984 230.526 292.984 230.03V209.31C292.984 208.814 293.386 208.412 293.882 208.412C294.378 208.412 294.78 208.814 294.78 209.31V230.03C294.78 230.526 294.378 230.928 293.882 230.928Z" fill="#FAB317"/>
<path d="M289.999 240.607C289.504 240.607 289.101 240.205 289.101 239.709V199.636C289.101 199.14 289.504 198.738 289.999 198.738C290.495 198.738 290.898 199.14 290.898 199.636V239.709C290.898 240.205 290.495 240.607 289.999 240.607Z" fill="#FAB317"/>
<path d="M297.527 243.648C297.031 243.648 296.628 243.246 296.628 242.75V196.59C296.628 196.094 297.031 195.692 297.527 195.692C298.022 195.692 298.425 196.094 298.425 196.59V242.75C298.425 243.246 298.022 243.648 297.527 243.648Z" fill="#FAB317"/>
<path d="M301.409 232.364C300.913 232.364 300.511 231.962 300.511 231.466V207.879C300.511 207.383 300.913 206.98 301.409 206.98C301.905 206.98 302.307 207.383 302.307 207.879V231.466C302.307 231.962 301.905 232.364 301.409 232.364Z" fill="#FAB317"/>
<path d="M305.292 237.618C304.796 237.618 304.394 237.215 304.394 236.72V202.62C304.394 202.125 304.796 201.722 305.292 201.722C305.788 201.722 306.19 202.125 306.19 202.62V236.72C306.19 237.215 305.788 237.618 305.292 237.618Z" fill="#FAB317"/>
<path d="M313.058 230.928C312.562 230.928 312.16 230.526 312.16 230.03V209.31C312.16 208.814 312.562 208.412 313.058 208.412C313.554 208.412 313.956 208.814 313.956 209.31V230.03C313.956 230.526 313.554 230.928 313.058 230.928Z" fill="#FAB317"/>
<path d="M309.175 240.607C308.679 240.607 308.277 240.205 308.277 239.709V199.636C308.277 199.14 308.679 198.738 309.175 198.738C309.671 198.738 310.073 199.14 310.073 199.636V239.709C310.073 240.205 309.671 240.607 309.175 240.607Z" fill="#FAB317"/>
<path d="M317.596 196.595C317.596 196.099 317.195 195.697 316.7 195.697C316.205 195.697 315.804 196.099 315.804 196.595V242.75C315.804 243.246 316.205 243.648 316.7 243.648C317.195 243.648 317.596 243.246 317.596 242.75V196.595Z" fill="#FAB317"/>
<path d="M320.581 232.364C320.085 232.364 319.682 231.962 319.682 231.466V207.879C319.682 207.383 320.085 206.981 320.581 206.981C321.076 206.981 321.479 207.383 321.479 207.879V231.466C321.479 231.962 321.076 232.364 320.581 232.364Z" fill="#FAB317"/>
<path d="M324.463 237.618C323.968 237.618 323.565 237.215 323.565 236.72V202.62C323.565 202.125 323.968 201.722 324.463 201.722C324.959 201.722 325.362 202.125 325.362 202.62V236.72C325.362 237.215 324.959 237.618 324.463 237.618Z" fill="#FAB317"/>
<path d="M332.229 230.928C331.733 230.928 331.331 230.526 331.331 230.03V209.31C331.331 208.814 331.733 208.412 332.229 208.412C332.725 208.412 333.127 208.814 333.127 209.31V230.03C333.127 230.526 332.725 230.928 332.229 230.928Z" fill="#FAB317"/>
<path d="M328.346 240.607C327.85 240.607 327.448 240.205 327.448 239.709V199.636C327.448 199.14 327.85 198.738 328.346 198.738C328.842 198.738 329.245 199.14 329.245 199.636V239.709C329.245 240.205 328.842 240.607 328.346 240.607Z" fill="#FAB317"/>
<path d="M335.873 243.648C335.378 243.648 334.975 243.246 334.975 242.75V196.59C334.975 196.094 335.378 195.692 335.873 195.692C336.369 195.692 336.772 196.094 336.772 196.59V242.75C336.772 243.246 336.369 243.648 335.873 243.648Z" fill="#FAB317"/>
<path d="M339.756 232.364C339.261 232.364 338.858 231.962 338.858 231.466V207.879C338.858 207.383 339.261 206.98 339.756 206.98C340.252 206.98 340.655 207.383 340.655 207.879V231.466C340.655 231.962 340.252 232.364 339.756 232.364Z" fill="#FAB317"/>
<path d="M343.639 237.618C343.143 237.618 342.741 237.215 342.741 236.72V202.62C342.741 202.125 343.143 201.722 343.639 201.722C344.135 201.722 344.537 202.125 344.537 202.62V236.72C344.537 237.215 344.135 237.618 343.639 237.618Z" fill="#FAB317"/>
<path d="M351.405 230.928C350.909 230.928 350.507 230.526 350.507 230.03V209.31C350.507 208.814 350.909 208.412 351.405 208.412C351.901 208.412 352.303 208.814 352.303 209.31V230.03C352.303 230.526 351.901 230.928 351.405 230.928Z" fill="#FAB317"/>
<path d="M348.42 199.636C348.42 199.14 348.019 198.738 347.525 198.738C347.03 198.738 346.629 199.14 346.629 199.636V239.704C346.629 240.2 347.03 240.602 347.525 240.602C348.019 240.602 348.42 240.2 348.42 239.704V199.636Z" fill="#FAB317"/>
<path d="M355.049 243.648C354.553 243.648 354.151 243.246 354.151 242.75V196.59C354.151 196.094 354.553 195.692 355.049 195.692C355.545 195.692 355.948 196.094 355.948 196.59V242.75C355.948 243.246 355.545 243.648 355.049 243.648Z" fill="#FAB317"/>
<path d="M358.932 232.364C358.436 232.364 358.034 231.962 358.034 231.466V207.879C358.034 207.383 358.436 206.98 358.932 206.98C359.428 206.98 359.83 207.383 359.83 207.879V231.466C359.83 231.962 359.428 232.364 358.932 232.364Z" fill="#FAB317"/>
<path d="M362.815 237.618C362.319 237.618 361.917 237.215 361.917 236.72V202.62C361.917 202.125 362.319 201.722 362.815 201.722C363.311 201.722 363.713 202.125 363.713 202.62V236.72C363.713 237.215 363.311 237.618 362.815 237.618Z" fill="#FAB317"/>
<path d="M370.581 230.928C370.085 230.928 369.683 230.526 369.683 230.03V209.31C369.683 208.814 370.085 208.412 370.581 208.412C371.077 208.412 371.479 208.814 371.479 209.31V230.03C371.479 230.526 371.077 230.928 370.581 230.928Z" fill="#FAB317"/>
<path d="M366.698 240.607C366.202 240.607 365.8 240.205 365.8 239.709V199.636C365.8 199.14 366.202 198.738 366.698 198.738C367.194 198.738 367.596 199.14 367.596 199.636V239.709C367.596 240.205 367.194 240.607 366.698 240.607Z" fill="#FAB317"/>
<path d="M374.225 243.648C373.729 243.648 373.327 243.246 373.327 242.75V196.59C373.327 196.094 373.729 195.692 374.225 195.692C374.721 195.692 375.123 196.094 375.123 196.59V242.75C375.123 243.246 374.721 243.648 374.225 243.648Z" fill="#FAB317"/>
<path d="M378.108 232.364C377.612 232.364 377.21 231.962 377.21 231.466V207.879C377.21 207.383 377.612 206.98 378.108 206.98C378.604 206.98 379.006 207.383 379.006 207.879V231.466C379.006 231.962 378.604 232.364 378.108 232.364Z" fill="#FAB317"/>
<path d="M381.991 237.618C381.495 237.618 381.092 237.215 381.092 236.72V202.62C381.092 202.125 381.495 201.722 381.991 201.722C382.487 201.722 382.889 202.125 382.889 202.62V236.72C382.889 237.215 382.487 237.618 381.991 237.618Z" fill="#FAB317"/>
<path d="M389.752 230.928C389.256 230.928 388.854 230.526 388.854 230.03V209.31C388.854 208.814 389.256 208.412 389.752 208.412C390.248 208.412 390.65 208.814 390.65 209.31V230.03C390.65 230.526 390.248 230.928 389.752 230.928Z" fill="#FAB317"/>
<path d="M385.874 240.607C385.378 240.607 384.975 240.205 384.975 239.709V199.636C384.975 199.14 385.378 198.738 385.874 198.738C386.369 198.738 386.772 199.14 386.772 199.636V239.709C386.772 240.205 386.369 240.607 385.874 240.607Z" fill="#FAB317"/>
<path d="M389.934 252.976H160.078C159.68 252.976 159.362 252.653 159.362 252.26C159.362 251.867 159.685 251.545 160.078 251.545H389.93C390.327 251.545 390.645 251.867 390.645 252.26C390.645 252.653 390.323 252.976 389.93 252.976H389.934Z" fill="#FAB317"/>
<g style="mix-blend-mode:multiply" opacity="0.5">
<path d="M239.704 124.926H166.8C163.549 124.926 160.91 127.564 160.91 130.815V225.759C160.91 229.01 163.549 231.648 166.8 231.648H223.036L245.594 206.274V130.815C245.594 127.564 242.956 124.926 239.704 124.926V124.926Z" fill="#BDBDBD"/>
</g>
<path d="M242.048 126.095C242.048 122.844 239.41 120.205 236.159 120.205H163.254C160.003 120.205 157.364 122.844 157.364 126.095V221.038C157.364 224.29 160.003 226.928 163.254 226.928H219.49L242.048 201.554V126.095V126.095Z" fill="#F4F3F2"/>
<path d="M242.048 201.549H225.38C222.129 201.549 219.49 204.188 219.49 207.439V226.928L242.048 201.554V201.549Z" fill="#DCDBDB"/>
<path d="M229.553 140.233H169.836C168.924 140.233 168.18 139.493 168.18 138.576C168.18 137.664 168.919 136.92 169.836 136.92H229.553C230.465 136.92 231.209 137.66 231.209 138.576C231.209 139.489 230.47 140.233 229.553 140.233Z" fill="#B6B5BA"/>
<path d="M229.553 165.284H169.836C168.924 165.284 168.18 164.545 168.18 163.628C168.18 162.716 168.919 161.972 169.836 161.972H229.553C230.465 161.972 231.209 162.711 231.209 163.628C231.209 164.54 230.47 165.284 229.553 165.284Z" fill="#B6B5BA"/>
<path d="M229.553 152.756H169.836C168.924 152.756 168.18 152.017 168.18 151.1C168.18 150.188 168.919 149.444 169.836 149.444H229.553C230.465 149.444 231.209 150.183 231.209 151.1C231.209 152.012 230.47 152.756 229.553 152.756Z" fill="#B6B5BA"/>
<path d="M229.553 176.002H169.836C168.924 176.002 168.18 175.263 168.18 174.346C168.18 173.433 168.919 172.69 169.836 172.69H229.553C230.465 172.69 231.209 173.429 231.209 174.346C231.209 175.258 230.47 176.002 229.553 176.002Z" fill="#B6B5BA"/>
<path d="M218.171 186.719H181.214C180.301 186.719 179.557 185.98 179.557 185.063C179.557 184.151 180.297 183.407 181.214 183.407H218.171C219.083 183.407 219.827 184.146 219.827 185.063C219.827 185.976 219.088 186.719 218.171 186.719Z" fill="#B6B5BA"/>
<g style="mix-blend-mode:multiply" opacity="0.5">
<path d="M394.556 134.951H295.323C294.269 134.951 293.415 135.805 293.415 136.86V197.278C293.415 198.332 294.269 199.187 295.323 199.187H394.556C395.611 199.187 396.465 198.332 396.465 197.278V136.86C396.465 135.805 395.611 134.951 394.556 134.951Z" fill="#BDBDBD"/>
</g>
<path d="M391.689 132.083H292.455C291.401 132.083 290.547 132.938 290.547 133.992V194.41C290.547 195.464 291.401 196.319 292.455 196.319H391.689C392.743 196.319 393.597 195.464 393.597 194.41V133.992C393.597 132.938 392.743 132.083 391.689 132.083Z" fill="#FAB317"/>
<path d="M342.072 188.488C355.487 188.488 366.361 177.613 366.361 164.199C366.361 150.784 355.487 139.91 342.072 139.91C328.658 139.91 317.783 150.784 317.783 164.199C317.783 177.613 328.658 188.488 342.072 188.488Z" fill="#EE9421"/>
<path d="M334.774 155.989V172.409C334.774 174.14 336.744 175.136 338.138 174.112L348.509 166.482C349.609 165.672 349.665 164.049 348.621 163.17L338.25 154.379C336.879 153.214 334.769 154.192 334.769 155.993L334.774 155.989Z" fill="white"/>
<path d="M404.488 267.362H140.387V271.675H404.488V267.362Z" fill="#B6B5BA"/>
<path d="M241.585 267.362H140.387V271.675H241.585V267.362Z" fill="#F7A81C"/>
<path d="M218.405 125.871H178.491L176.058 124.551L178.491 121.637L176.058 120.678L178.491 118.816L176.058 117.408H220.838L218.405 118.722L220.838 120.416L218.405 122.39L220.838 124.341L218.405 125.871Z" fill="#FAB317"/>
<g style="mix-blend-mode:multiply" opacity="0.5">
<path d="M471.905 2.86771H349.202C343.999 2.86771 339.784 7.08273 339.784 12.2848V81.2035C339.784 86.4056 343.999 90.6206 349.202 90.6206H366.029C368.41 90.6206 370.618 91.8603 371.853 93.8953L378.019 104.019C379.17 105.909 381.911 105.904 383.057 104.019L389.195 93.9047C390.43 91.865 392.643 90.6253 395.024 90.6253H471.9C477.102 90.6253 481.317 86.4103 481.317 81.2082V12.2848C481.317 7.08273 477.102 2.86771 471.9 2.86771H471.905Z" fill="#BDBDBD"/>
</g>
<path d="M469.037 0H346.334C341.132 0 336.917 4.21502 336.917 9.41714V78.3358C336.917 83.5379 341.132 87.7529 346.334 87.7529H363.161C365.542 87.7529 367.75 88.9926 368.986 91.0276L375.151 101.151C376.302 103.041 379.044 103.036 380.19 101.151L386.327 91.037C387.563 88.9973 389.775 87.7576 392.156 87.7576H469.033C474.235 87.7576 478.45 83.5426 478.45 78.3405V9.41714C478.45 4.21502 474.235 0 469.033 0H469.037Z" fill="#FBBF13"/>
<path d="M469.037 0H437.586C442.788 0 447.003 4.21502 447.003 9.41714V78.3358C447.003 83.5379 442.788 87.7529 437.586 87.7529H469.037C474.239 87.7529 478.454 83.5379 478.454 78.3358V9.41714C478.454 4.21502 474.239 0 469.037 0Z" fill="#F7A81C"/>
<path d="M478.459 12.6872H336.917V77.3627H478.459V12.6872Z" fill="#5C4EA0"/>
<path d="M478.459 67.1643H336.917V77.3627H478.459V67.1643Z" fill="#EFEBE0"/>
<path d="M478.459 12.6872H336.917V24.4995H478.459V12.6872Z" fill="#EFEBE0"/>
<g style="mix-blend-mode:multiply">
<path d="M352.023 15.9713H342.895C342.611 15.9713 342.381 16.2016 342.381 16.4859V20.7055C342.381 20.9898 342.611 21.2201 342.895 21.2201H352.023C352.307 21.2201 352.537 20.9898 352.537 20.7055V16.4859C352.537 16.2016 352.307 15.9713 352.023 15.9713Z" fill="#473E99"/>
</g>
<g style="mix-blend-mode:multiply">
<path d="M368.948 15.9713H359.821C359.537 15.9713 359.306 16.2016 359.306 16.4859V20.7055C359.306 20.9898 359.537 21.2201 359.821 21.2201H368.948C369.232 21.2201 369.463 20.9898 369.463 20.7055V16.4859C369.463 16.2016 369.232 15.9713 368.948 15.9713Z" fill="#473E99"/>
</g>
<g style="mix-blend-mode:multiply">
<path d="M385.878 15.9713H376.751C376.467 15.9713 376.237 16.2016 376.237 16.4859V20.7055C376.237 20.9898 376.467 21.2201 376.751 21.2201H385.878C386.163 21.2201 386.393 20.9898 386.393 20.7055V16.4859C386.393 16.2016 386.163 15.9713 385.878 15.9713Z" fill="#473E99"/>
</g>
<g style="mix-blend-mode:multiply">
<path d="M402.804 15.9713H393.677C393.393 15.9713 393.162 16.2016 393.162 16.4859V20.7055C393.162 20.9898 393.393 21.2201 393.677 21.2201H402.804C403.088 21.2201 403.318 20.9898 403.318 20.7055V16.4859C403.318 16.2016 403.088 15.9713 402.804 15.9713Z" fill="#473E99"/>
</g>
<g style="mix-blend-mode:multiply">
<path d="M419.729 15.9713H410.602C410.318 15.9713 410.088 16.2016 410.088 16.4859V20.7055C410.088 20.9898 410.318 21.2201 410.602 21.2201H419.729C420.014 21.2201 420.244 20.9898 420.244 20.7055V16.4859C420.244 16.2016 420.014 15.9713 419.729 15.9713Z" fill="#473E99"/>
</g>
<g style="mix-blend-mode:multiply">
<path d="M436.655 15.9713H427.528C427.244 15.9713 427.013 16.2016 427.013 16.4859V20.7055C427.013 20.9898 427.244 21.2201 427.528 21.2201H436.655C436.939 21.2201 437.17 20.9898 437.17 20.7055V16.4859C437.17 16.2016 436.939 15.9713 436.655 15.9713Z" fill="#473E99"/>
</g>
<g style="mix-blend-mode:multiply">
<path d="M453.581 15.9713H444.454C444.169 15.9713 443.939 16.2016 443.939 16.4859V20.7055C443.939 20.9898 444.169 21.2201 444.454 21.2201H453.581C453.865 21.2201 454.095 20.9898 454.095 20.7055V16.4859C454.095 16.2016 453.865 15.9713 453.581 15.9713Z" fill="#473E99"/>
</g>
<g style="mix-blend-mode:multiply">
<path d="M470.506 15.9713H461.379C461.095 15.9713 460.865 16.2016 460.865 16.4859V20.7055C460.865 20.9898 461.095 21.2201 461.379 21.2201H470.506C470.791 21.2201 471.021 20.9898 471.021 20.7055V16.4859C471.021 16.2016 470.791 15.9713 470.506 15.9713Z" fill="#473E99"/>
</g>
<g style="mix-blend-mode:multiply">
<path d="M352.023 69.6391H342.895C342.611 69.6391 342.381 69.8695 342.381 70.1537V74.3734C342.381 74.6576 342.611 74.888 342.895 74.888H352.023C352.307 74.888 352.537 74.6576 352.537 74.3734V70.1537C352.537 69.8695 352.307 69.6391 352.023 69.6391Z" fill="#473E99"/>
</g>
<g style="mix-blend-mode:multiply">
<path d="M368.948 69.6391H359.821C359.537 69.6391 359.306 69.8695 359.306 70.1537V74.3734C359.306 74.6576 359.537 74.888 359.821 74.888H368.948C369.232 74.888 369.463 74.6576 369.463 74.3734V70.1537C369.463 69.8695 369.232 69.6391 368.948 69.6391Z" fill="#473E99"/>
</g>
<g style="mix-blend-mode:multiply">
<path d="M385.878 69.6391H376.751C376.467 69.6391 376.237 69.8695 376.237 70.1537V74.3734C376.237 74.6576 376.467 74.888 376.751 74.888H385.878C386.163 74.888 386.393 74.6576 386.393 74.3734V70.1537C386.393 69.8695 386.163 69.6391 385.878 69.6391Z" fill="#473E99"/>
</g>
<g style="mix-blend-mode:multiply">
<path d="M402.804 69.6391H393.677C393.393 69.6391 393.162 69.8695 393.162 70.1537V74.3734C393.162 74.6576 393.393 74.888 393.677 74.888H402.804C403.088 74.888 403.318 74.6576 403.318 74.3734V70.1537C403.318 69.8695 403.088 69.6391 402.804 69.6391Z" fill="#473E99"/>
</g>
<g style="mix-blend-mode:multiply">
<path d="M419.729 69.6391H410.602C410.318 69.6391 410.088 69.8695 410.088 70.1537V74.3734C410.088 74.6576 410.318 74.888 410.602 74.888H419.729C420.014 74.888 420.244 74.6576 420.244 74.3734V70.1537C420.244 69.8695 420.014 69.6391 419.729 69.6391Z" fill="#473E99"/>
</g>
<g style="mix-blend-mode:multiply">
<path d="M436.655 69.6391H427.528C427.244 69.6391 427.013 69.8695 427.013 70.1537V74.3734C427.013 74.6576 427.244 74.888 427.528 74.888H436.655C436.939 74.888 437.17 74.6576 437.17 74.3734V70.1537C437.17 69.8695 436.939 69.6391 436.655 69.6391Z" fill="#473E99"/>
</g>
<g style="mix-blend-mode:multiply">
<path d="M453.581 69.6391H444.454C444.169 69.6391 443.939 69.8695 443.939 70.1537V74.3734C443.939 74.6576 444.169 74.888 444.454 74.888H453.581C453.865 74.888 454.095 74.6576 454.095 74.3734V70.1537C454.095 69.8695 453.865 69.6391 453.581 69.6391Z" fill="#473E99"/>
</g>
<g style="mix-blend-mode:multiply">
<path d="M470.506 69.6391H461.379C461.095 69.6391 460.865 69.8695 460.865 70.1537V74.3734C460.865 74.6576 461.095 74.888 461.379 74.888H470.506C470.791 74.888 471.021 74.6576 471.021 74.3734V70.1537C471.021 69.8695 470.791 69.6391 470.506 69.6391Z" fill="#473E99"/>
</g>
<path d="M382.856 24.5042H380.012V67.1644H382.856V24.5042Z" fill="#EFEBE0"/>
<path d="M434.934 24.5042H432.089V67.1644H434.934V24.5042Z" fill="#EFEBE0"/>
<path d="M400.652 37.1118V52.9381C400.652 54.6082 402.551 55.5672 403.894 54.5801L413.891 47.226C414.948 46.4448 415.005 44.8823 414.003 44.0308L404.006 35.5587C402.682 34.4359 400.652 35.3763 400.652 37.1118Z" fill="white"/>
<path d="M362.6 338.853C393.167 352.448 423.809 366.758 453.847 381.49C423.28 367.9 392.638 353.58 362.6 338.853V338.853Z" fill="white"/>
<path d="M375.39 369.851C377.949 363.007 381.107 356.392 384.826 350.104C382.272 356.948 379.104 363.563 375.39 369.851Z" fill="white"/>
<path d="M420.89 390.828C423.449 383.983 426.606 377.369 430.325 371.081C427.771 377.925 424.604 384.54 420.89 390.828Z" fill="white"/>
<path d="M445.062 271.973L448.908 273.997C449.326 274.218 449.487 274.736 449.267 275.154L423.226 324.628L417.861 321.804L443.902 272.33C444.122 271.912 444.64 271.751 445.058 271.971L445.062 271.973Z" fill="#F04F29"/>
<path d="M446.348 280.702L440.983 277.878L417.86 321.809L423.225 324.632L446.348 280.702Z" fill="#F89624"/>
<path d="M417.909 321.796L416.571 330.423L423.275 324.622L417.909 321.796Z" fill="#FED8BA"/>
<path d="M416.571 330.423L416.936 328.079L418.302 328.921L416.571 330.423Z" fill="#454546"/>
<path d="M443.4 282.374C437.571 293.882 430.821 306.452 424.449 317.67C430.283 306.162 437.029 293.592 443.4 282.374Z" fill="#F58023"/>
<path d="M441.066 282.374C436.907 290.78 432.444 299.093 427.733 307.205C431.892 298.794 436.355 290.481 441.066 282.374Z" fill="#F58023"/>
<g style="mix-blend-mode:multiply" opacity="0.5">
<path d="M193.316 33.6874C188.348 9.95044 159.68 1.2631 146.488 25.7392C134.02 48.8727 151.966 69.3724 154.384 74.4436C159.905 86.008 159.086 89.7224 159.086 89.7224V95.2427C159.086 100.426 163.287 104.627 168.47 104.627C173.654 104.627 177.855 100.426 177.855 95.2427V89.7224C178.683 67.6415 198.279 57.4291 193.311 33.6921L193.316 33.6874Z" fill="#BDBDBD"/>
</g>
<g style="mix-blend-mode:multiply" opacity="0.5">
<path d="M81.2753 255.236L18.0905 260.142C17.3177 260.202 16.7399 260.877 16.7999 261.65L22.9207 340.478C22.9807 341.251 23.6558 341.829 24.4286 341.769L87.6135 336.863C88.3862 336.803 88.9641 336.128 88.9041 335.355L82.7832 256.527C82.7232 255.754 82.0481 255.176 81.2753 255.236Z" fill="#BDBDBD"/>
</g>
<path d="M78.6676 252.634L15.4827 257.54C14.71 257.6 14.1321 258.275 14.1921 259.048L20.313 337.876C20.373 338.649 21.0481 339.227 21.8209 339.167L85.0057 334.261C85.7785 334.201 86.3563 333.526 86.2963 332.753L80.1755 253.925C80.1155 253.152 79.4403 252.574 78.6676 252.634Z" fill="#F89624"/>
<g style="mix-blend-mode:multiply" opacity="0.5">
<path d="M90.5031 242.592L23.1762 226.665C22.422 226.486 21.6658 226.953 21.4874 227.707L1.62958 311.646C1.45114 312.401 1.91795 313.157 2.67223 313.335L69.9991 329.263C70.7534 329.441 71.5095 328.975 71.688 328.22L91.5458 244.281C91.7242 243.527 91.2574 242.771 90.5031 242.592Z" fill="#BDBDBD"/>
</g>
<g style="mix-blend-mode:multiply">
<path d="M89.1966 239.99L21.8697 224.062C21.1154 223.884 20.3593 224.351 20.1809 225.105L0.323068 309.044C0.144625 309.798 0.611433 310.554 1.36572 310.733L68.6926 326.661C69.4469 326.839 70.203 326.372 70.3815 325.618L90.2393 241.679C90.4177 240.925 89.9509 240.169 89.1966 239.99Z" fill="#473E99"/>
</g>
<path d="M73.3245 250.271L31.4461 240.364C30.6918 240.185 29.9357 240.652 29.7572 241.406L26.0642 257.017C25.8857 257.771 26.3525 258.527 27.1068 258.706L68.9852 268.613C69.7395 268.792 70.4957 268.325 70.6741 267.571L74.3672 251.96C74.5456 251.206 74.0788 250.45 73.3245 250.271Z" fill="white"/>
<g style="mix-blend-mode:multiply" opacity="0.74">
<g style="mix-blend-mode:multiply">
<path d="M3.82703 311.313L39.2407 319.687L3.82703 311.313Z" fill="#BDBDBD"/>
</g>
</g>
<path d="M156.218 86.8547C156.218 86.8547 157.037 83.1355 151.516 71.5758C149.098 66.5047 131.152 46.005 143.62 22.8715C156.807 -1.59997 185.48 7.0827 190.448 30.8197C195.416 54.5567 175.82 64.7691 174.992 86.85H156.223L156.218 86.8547Z" fill="#FBBF13"/>
<g style="mix-blend-mode:multiply" opacity="0.47">
<path d="M190.448 30.8197C187.328 15.9198 174.87 6.9564 162.763 8.39727C173.106 9.57617 182.715 17.9922 185.4 30.8197C190.369 54.5567 170.772 64.7691 169.944 86.85H174.991C175.819 64.7691 195.416 54.5567 190.448 30.8197V30.8197Z" fill="#FBBF13"/>
</g>
<path d="M162.66 88.8756C162.66 88.8756 164.316 62.0089 157.692 54.6502C151.067 47.2915 149.229 53.7286 152.906 56.1238C156.588 58.5144 165.453 54.2853 165.252 42.8753C165.05 31.4652 160.269 35.8814 160.269 40.2976C160.269 44.7138 165.607 54.0982 173.335 53.1766C181.064 52.255 178.304 44.6717 173.335 47.5441C168.367 50.4165 166.342 74.3359 169.102 88.8756" stroke="white" stroke-miterlimit="10"/>
<g style="mix-blend-mode:multiply">
<path d="M156.218 86.8547H174.987V98.6951C174.987 100.384 173.616 101.759 171.923 101.759H159.278C157.589 101.759 156.213 100.389 156.213 98.6951V86.8547H156.218Z" fill="#473E99"/>
</g>
<path d="M157.874 89.9797C162.665 91.4065 167.764 90.9668 172.596 89.9797C172.007 90.1808 171.408 90.3726 170.809 90.5504C166.604 91.6311 161.902 91.8042 157.879 89.9797H157.874Z" fill="#454546"/>
<path d="M157.874 93.7316C162.665 95.1584 167.764 94.7187 172.596 93.7316C172.007 93.9327 171.408 94.1245 170.809 94.3023C166.604 95.383 161.902 95.556 157.879 93.7316H157.874Z" fill="#454546"/>
<g style="mix-blend-mode:screen" opacity="0.53">
<g style="mix-blend-mode:screen">
<path d="M146.478 37.0603C147.573 28.0128 153.313 17.8565 162.763 15.7092C161.453 16.3829 160.204 17.0705 159.039 17.936C152.709 22.5627 149.135 29.8513 146.478 37.0603Z" fill="white"/>
</g>
</g>
<g style="mix-blend-mode:multiply" opacity="0.39">
<path d="M274.852 295.44C274.852 293.017 272.887 291.056 270.468 291.056C268.05 291.056 266.085 293.021 266.085 295.44C266.085 297.858 268.05 299.823 270.468 299.823C272.887 299.823 274.852 297.858 274.852 295.44Z" fill="#B6B5BA"/>
</g>
<path d="M334.376 357.566H181.681C180.346 357.566 179.263 358.649 179.263 359.984V436.042C179.263 437.378 180.346 438.461 181.681 438.461H334.376C335.712 438.461 336.795 437.378 336.795 436.042V359.984C336.795 358.649 335.712 357.566 334.376 357.566Z" fill="#303030"/>
<path d="M332.945 356.13H180.25C178.914 356.13 177.831 357.212 177.831 358.548V434.606C177.831 435.942 178.914 437.024 180.25 437.024H332.945C334.281 437.024 335.363 435.942 335.363 434.606V358.548C335.363 357.212 334.281 356.13 332.945 356.13Z" fill="#212121"/>
<path d="M317.264 366.772H187.941V426.377H317.264V366.772Z" fill="#F4F3F2"/>
<path d="M330.307 396.577C330.307 394.079 328.281 392.053 325.783 392.053C323.285 392.053 321.259 394.079 321.259 396.577C321.259 399.075 323.285 401.101 325.783 401.101C328.281 401.101 330.307 399.075 330.307 396.577Z" fill="#FDFEFE"/>
<path d="M252.607 418.663C264.804 418.663 274.692 408.775 274.692 396.577C274.692 384.379 264.804 374.491 252.607 374.491C240.409 374.491 230.521 384.379 230.521 396.577C230.521 408.775 240.409 418.663 252.607 418.663Z" fill="#FAB317"/>
<path d="M245.969 387.155V405.999C245.969 407.987 248.228 409.129 249.828 407.95L261.729 399.197C262.992 398.27 263.053 396.409 261.86 395.393L249.959 385.303C248.383 383.969 245.969 385.087 245.969 387.151V387.155Z" fill="white"/>
<path d="M141.964 483.656C141.964 483.656 153.449 466.894 153.449 463.788C153.449 460.682 152.363 431.35 154.071 428.243C155.778 425.137 165.401 413.966 166.641 409.62C167.881 405.274 169.902 396.273 177.817 396.582V445.005C177.817 445.005 178.594 449.043 182.626 446.558C186.664 444.074 188.989 436.935 189.143 434.297C189.297 431.659 190.383 417.222 194.111 414.429C197.835 411.636 201.096 413.344 201.718 421.413C202.34 429.483 203.271 439.883 201.718 443.92C200.165 447.957 195.973 457.889 188.834 467.512C181.695 477.135 179.366 478.22 175.333 481.013C171.296 483.806 163.848 494.051 161.673 498.243L141.959 483.652L141.964 483.656Z" fill="#FBB680"/>
<path d="M195.051 413.119C194.813 413.119 194.612 413.297 194.588 413.535C194.439 415.074 193.961 420.361 194.373 421.259C194.85 422.312 199.477 422.354 200.436 421.671C201.259 421.086 200.801 415.21 200.661 413.591C200.642 413.353 200.445 413.18 200.207 413.175L195.056 413.119H195.051Z" fill="white"/>
<g style="mix-blend-mode:multiply">
<path d="M139.882 479.596L167.956 493.696L154.693 524.038H109.296L139.882 479.596Z" fill="#473E99"/>
</g>
<path d="M338.325 487.282C338.325 487.282 329.698 473.013 329.553 471.114C329.408 469.215 329.67 453.964 327.921 449.875C326.171 445.791 322.082 432.07 313.619 434.844C313.619 434.844 311.285 432.655 309.535 432.365C307.786 432.075 304.722 433.97 303.697 432.365C302.677 430.76 300.778 430.321 298.298 431.05C295.819 431.78 295.089 432.22 292.605 431.78C290.126 431.34 286.622 431.195 285.452 432.51C284.283 433.825 280.489 427.401 279.179 424.482C277.864 421.563 269.692 401.279 264.878 401.718C260.064 402.158 265.463 418.064 268.672 427.986C271.881 437.909 274.51 441.412 275.24 448.561C275.97 455.714 277.284 463.592 279.324 467.241C281.368 470.89 298.294 486.94 302.088 488.695C305.882 490.444 315.074 501.681 315.074 501.681L338.325 487.282Z" fill="#FBB680"/>
<path d="M263.792 401.101C263.343 401.208 263.077 401.671 263.226 402.111C263.755 403.688 264.967 407.065 265.884 407.65C267.086 408.417 270.552 406.958 270.253 406.504C270.005 406.134 267.731 402.303 266.913 400.918C266.735 400.619 266.389 400.479 266.052 400.558L263.792 401.101V401.101Z" fill="white"/>
<g style="mix-blend-mode:multiply">
<path d="M335.541 478.15L307.903 495.422L324.534 525.488L371.423 521.1L335.541 478.15Z" fill="#473E99"/>
</g>
</svg>
