<svg width="84" height="52" viewBox="0 0 84 52" fill="none" xmlns="http://www.w3.org/2000/svg">
<path d="M0.895996 7.59688V38.2623C0.895996 42.3155 4.18488 45.6044 8.23809 45.6044H63.9176L80.7327 51.6379C82.4582 52.2633 84.1142 50.5609 83.4541 48.8586L77.0963 32.4373V7.59688C77.0963 3.54367 73.8075 0.254776 69.7542 0.254776H8.24969C4.19647 0.254776 0.907588 3.54367 0.907588 7.59688H0.895996Z" fill="#5C4DA0"/>
<path d="M49.2798 23.7981C49.2798 26.728 51.6538 29.1136 54.5953 29.1136C57.5367 29.1136 59.9108 26.7396 59.9108 23.7981C59.9108 20.8682 57.5367 18.4826 54.5953 18.4826C51.6538 18.4826 49.2798 20.8567 49.2798 23.7981Z" fill="#4A429A"/>
<path d="M32.4646 23.7981C32.4646 26.728 34.8386 29.1136 37.7801 29.1136C40.7216 29.1136 43.0956 26.7396 43.0956 23.7981C43.0956 20.8682 40.7216 18.4826 37.7801 18.4826C34.8386 18.4826 32.4646 20.8567 32.4646 23.7981Z" fill="#4A429A"/>
<path d="M15.6497 23.7981C15.6497 26.728 18.0237 29.1136 20.9652 29.1136C23.9067 29.1136 26.2807 26.7396 26.2807 23.7981C26.2807 20.8682 23.9067 18.4826 20.9652 18.4826C18.0237 18.4826 15.6497 20.8567 15.6497 23.7981Z" fill="#4A429A"/>
</svg>
