<svg width="24" height="24" viewBox="0 0 24 24" fill="none" xmlns="http://www.w3.org/2000/svg">
<path d="M10.1437 6.62753C10.9303 4.66653 11.3236 3.68604 12 3.68604C12.6763 3.68604 13.0696 4.66653 13.8562 6.62753L13.8928 6.71885C14.3372 7.82672 14.5594 8.38065 15.0123 8.71734C15.4651 9.05403 16.0596 9.10727 17.2485 9.21374L17.4634 9.23299C19.4092 9.40726 20.3822 9.49439 20.5903 10.1134C20.7985 10.7324 20.076 11.3897 18.6309 12.7044L18.1487 13.1432C17.4172 13.8087 17.0514 14.1414 16.8809 14.5776C16.8491 14.6589 16.8227 14.7423 16.8018 14.8271C16.6897 15.2817 16.7968 15.7645 17.0111 16.7299L17.0777 17.0305C17.4714 18.8048 17.6682 19.692 17.3246 20.0746C17.1961 20.2176 17.0292 20.3206 16.8438 20.3712C16.3476 20.5066 15.6431 19.9325 14.2342 18.7844C13.309 18.0305 12.8464 17.6536 12.3153 17.5688C12.1064 17.5354 11.8935 17.5354 11.6846 17.5688C11.1535 17.6536 10.6909 18.0305 9.76577 18.7844C8.35681 19.9325 7.65234 20.5066 7.15614 20.3712C6.97072 20.3206 6.80381 20.2176 6.67538 20.0746C6.33171 19.692 6.52854 18.8048 6.92222 17.0305L6.98889 16.7299C7.2031 15.7645 7.31021 15.2817 7.19815 14.8271C7.17725 14.7423 7.15081 14.6589 7.11901 14.5776C6.94854 14.1414 6.58279 13.8087 5.85128 13.1432L5.369 12.7044C3.92395 11.3897 3.20143 10.7324 3.40961 10.1134C3.61779 9.49439 4.5907 9.40726 6.53651 9.23299L6.75145 9.21374C7.94036 9.10727 8.53482 9.05403 8.98767 8.71734C9.44052 8.38065 9.66272 7.82672 10.1071 6.71885L10.1437 6.62753Z" fill="#E2A03F" stroke="#E2A03F"/>
</svg>
