<svg width="28" height="29" viewBox="0 0 28 29" fill="none" xmlns="http://www.w3.org/2000/svg">
<g filter="url(#filter0_d_195_1079)">
<path d="M12.1437 6.62753C12.9303 4.66653 13.3236 3.68604 14 3.68604C14.6763 3.68604 15.0696 4.66653 15.8562 6.62753L15.8928 6.71885C16.3372 7.82672 16.5594 8.38065 17.0123 8.71734C17.4651 9.05403 18.0596 9.10727 19.2485 9.21374L19.4634 9.23299C21.4092 9.40726 22.3822 9.49439 22.5903 10.1134C22.7985 10.7324 22.076 11.3897 20.6309 12.7044L20.1487 13.1432C19.4172 13.8087 19.0514 14.1414 18.8809 14.5776C18.8491 14.6589 18.8227 14.7423 18.8018 14.8271C18.6897 15.2817 18.7968 15.7645 19.0111 16.7299L19.0777 17.0305C19.4714 18.8048 19.6682 19.692 19.3246 20.0746C19.1961 20.2176 19.0292 20.3206 18.8438 20.3712C18.3476 20.5066 17.6431 19.9325 16.2342 18.7844C15.309 18.0305 14.8464 17.6536 14.3153 17.5688C14.1064 17.5354 13.8935 17.5354 13.6846 17.5688C13.1535 17.6536 12.6909 18.0305 11.7658 18.7844C10.3568 19.9325 9.65234 20.5066 9.15614 20.3712C8.97072 20.3206 8.80381 20.2176 8.67538 20.0746C8.33171 19.692 8.52854 18.8048 8.92222 17.0305L8.98889 16.7299C9.2031 15.7645 9.31021 15.2817 9.19815 14.8271C9.17725 14.7423 9.15081 14.6589 9.11901 14.5776C8.94854 14.1414 8.58279 13.8087 7.85128 13.1432L7.369 12.7044C5.92395 11.3897 5.20143 10.7324 5.40961 10.1134C5.61779 9.49439 6.5907 9.40726 8.53651 9.23299L8.75145 9.21374C9.94036 9.10727 10.5348 9.05403 10.9877 8.71734C11.4405 8.38065 11.6627 7.82672 12.1071 6.71885L12.1437 6.62753Z" stroke="#E2A03F"/>
</g>
<defs>
<filter id="filter0_d_195_1079" x="-2" y="0" width="32" height="32" filterUnits="userSpaceOnUse" color-interpolation-filters="sRGB">
<feFlood flood-opacity="0" result="BackgroundImageFix"/>
<feColorMatrix in="SourceAlpha" type="matrix" values="0 0 0 0 0 0 0 0 0 0 0 0 0 0 0 0 0 0 127 0" result="hardAlpha"/>
<feOffset dy="4"/>
<feGaussianBlur stdDeviation="2"/>
<feComposite in2="hardAlpha" operator="out"/>
<feColorMatrix type="matrix" values="0 0 0 0 0 0 0 0 0 0 0 0 0 0 0 0 0 0 0.25 0"/>
<feBlend mode="normal" in2="BackgroundImageFix" result="effect1_dropShadow_195_1079"/>
<feBlend mode="normal" in="SourceGraphic" in2="effect1_dropShadow_195_1079" result="shape"/>
</filter>
</defs>
</svg>
