<svg width="56" height="60" viewBox="0 0 56 60" fill="none" xmlns="http://www.w3.org/2000/svg">
<path d="M53.8986 40.1209L55.6041 31.1909L47.4746 29.5509C47.4746 27.3533 47.103 25.149 46.3996 23.011L53.1022 18.3767L48.1715 10.821L41.7608 15.2562C39.8496 13.2643 37.6065 11.724 35.1776 10.7015L36.777 2.32914L28.0967 0.576324L26.4509 9.20098C24.6724 9.30057 22.9005 9.65246 21.1685 10.2567L16.6691 3.35826L9.32938 8.4308L13.6363 15.0304C11.6985 16.9957 10.2054 19.3062 9.20992 21.8027L2.10248 20.3685L0.396957 29.2986L7.75658 30.7859C7.88267 33.1229 8.39366 35.4534 9.32274 37.6776L2.90547 42.1128L7.83622 49.6685L14.5388 45.0341C16.4634 46.7604 18.66 48.0551 21.0026 48.8983L19.3966 57.3171L28.0768 59.0699L29.8155 49.9407C31.7268 49.7216 33.6181 49.217 35.4365 48.4136L39.7434 55.0132L47.0831 49.9407L42.5837 43.0489C43.7849 41.6347 44.767 40.0745 45.5302 38.4146L53.9118 40.1077L53.8986 40.1209ZM32.0984 36.5423C28.3887 39.1051 23.3385 38.0893 20.8499 34.2716C18.3547 30.4539 19.3501 25.2618 23.0598 22.6924C26.7695 20.1295 31.8197 21.1454 34.3083 24.9631C36.8035 28.7807 35.8081 33.9728 32.0984 36.5423Z" fill="#FF6300"/>
</svg>
