<svg width="76" height="76" viewBox="0 0 76 76" fill="none" xmlns="http://www.w3.org/2000/svg">
<g filter="url(#filter0_d_133_976)">
<g clip-path="url(#clip0_133_976)">
<path d="M35.6094 49.3385C35.0591 49.3385 34.6133 49.7845 34.6133 50.3346C34.6133 50.8847 35.0591 51.3307 35.6094 51.3307H40.3906C40.9409 51.3307 41.3867 50.8847 41.3867 50.3346C41.3867 49.7845 40.9409 49.3385 40.3906 49.3385H35.6094Z" fill="#FF6300"/>
<path d="M15.9531 33.8717H22.5374C22.9396 34.9184 23.9528 35.6646 25.1394 35.6646C26.3259 35.6646 27.3391 34.9184 27.7413 33.8717H29.0573C29.6076 33.8717 30.0534 33.4257 30.0534 32.8756C30.0534 32.3255 29.6076 31.8795 29.0573 31.8795H27.7413C27.3391 30.8328 26.3259 30.0865 25.1394 30.0865C23.9528 30.0865 22.9396 30.8328 22.5374 31.8795H15.9531C15.4029 31.8795 14.957 32.3255 14.957 32.8756C14.957 33.4257 15.4029 33.8717 15.9531 33.8717ZM25.1394 32.0787C25.5788 32.0787 25.9362 32.4361 25.9362 32.8756C25.9362 33.3151 25.5788 33.6725 25.1394 33.6725C24.6999 33.6725 24.3425 33.3151 24.3425 32.8756C24.3425 32.4361 24.6999 32.0787 25.1394 32.0787Z" fill="#FF6300"/>
<path d="M15.9531 28.1607H17.2249C17.6271 29.2074 18.6403 29.9537 19.8269 29.9537C21.0134 29.9537 22.0266 29.2074 22.4288 28.1607H29.0573C29.6076 28.1607 30.0534 27.7148 30.0534 27.1646C30.0534 26.6145 29.6076 26.1685 29.0573 26.1685H22.4288C22.0266 25.1219 21.0134 24.3756 19.8269 24.3756C18.6403 24.3756 17.6271 25.1219 17.2249 26.1685H15.9531C15.4029 26.1685 14.957 26.6145 14.957 27.1646C14.957 27.7148 15.4029 28.1607 15.9531 28.1607ZM19.8269 26.3678C20.2663 26.3678 20.6237 26.7252 20.6237 27.1646C20.6237 27.6041 20.2663 27.9615 19.8269 27.9615C19.3874 27.9615 19.03 27.6041 19.03 27.1646C19.03 26.7252 19.3874 26.3678 19.8269 26.3678Z" fill="#FF6300"/>
<path d="M29.2566 18.9967C29.8067 18.9967 30.2527 18.5507 30.2527 18.0006C30.2527 17.4505 29.8067 17.0045 29.2566 17.0045C28.7065 17.0045 28.2605 17.4505 28.2605 18.0006C28.2605 18.5507 28.7065 18.9967 29.2566 18.9967Z" fill="#FF6300"/>
<path d="M26.5117 18.9967C27.0618 18.9967 27.5078 18.5507 27.5078 18.0006C27.5078 17.4505 27.0618 17.0045 26.5117 17.0045C25.9616 17.0045 25.5156 17.4505 25.5156 18.0006C25.5156 18.5507 25.9616 18.9967 26.5117 18.9967Z" fill="#FF6300"/>
<path d="M23.7668 18.9967C24.317 18.9967 24.7629 18.5507 24.7629 18.0006C24.7629 17.4505 24.317 17.0045 23.7668 17.0045C23.2167 17.0045 22.7708 17.4505 22.7708 18.0006C22.7708 18.5507 23.2167 18.9967 23.7668 18.9967Z" fill="#FF6300"/>
<path d="M69.0117 6.70475H68.6386L68.9169 6.42651C69.7503 5.59311 69.7503 4.23696 68.9169 3.40356L66.7364 1.22305C65.903 0.389782 64.547 0.389782 63.7134 1.22305L58.2321 6.70462H6.98828C5.34061 6.70462 4 8.04509 4 9.6929V51.0592C4 53.0732 5.63838 54.7116 7.65234 54.7116H31.2458V61.7579H26.4453C25.1638 61.7579 24.1211 62.8006 24.1211 64.0821V65.0774C24.1211 66.3589 25.1638 67.4016 26.4453 67.4016H49.5547C50.8362 67.4016 51.8789 66.3589 51.8789 65.0774V64.0821C51.8789 62.8006 50.8362 61.7579 49.5547 61.7579H44.7542V54.7116H55.3984C55.9487 54.7116 56.3945 54.2656 56.3945 53.7155C56.3945 53.1653 55.9487 52.7194 55.3984 52.7194H7.65234C6.73687 52.7194 5.99219 51.9747 5.99219 51.0592V48.1108H70.0078V51.0592C70.0078 51.9747 69.2631 52.7194 68.3477 52.7194H60.0469C59.4966 52.7194 59.0508 53.1653 59.0508 53.7155C59.0508 54.2656 59.4966 54.7116 60.0469 54.7116H68.3477C70.3616 54.7116 72 53.0732 72 51.0592V9.69303C72 8.04536 70.6594 6.70475 69.0117 6.70475ZM49.5547 63.7502C49.7378 63.7502 49.8867 63.8993 49.8867 64.0823V65.0776C49.8867 65.2606 49.7378 65.4096 49.5547 65.4096H26.4453C26.2622 65.4096 26.1133 65.2606 26.1133 65.0776V64.0823C26.1133 63.8993 26.2622 63.7502 26.4453 63.7502H49.5547ZM33.238 54.7118H42.7621V61.7582H33.238V54.7118ZM65.1222 2.63192C65.179 2.57521 65.2712 2.57534 65.3278 2.63192L67.5081 4.81231C67.5649 4.86902 67.5649 4.96132 67.5081 5.0179L65.4276 7.09841L63.0417 4.71243L65.1222 2.63192ZM61.6329 6.12117L64.0188 8.50715L63.324 9.20189L60.9382 6.81591L61.6329 6.12117ZM59.5294 8.22466L61.9154 10.6106L50.1282 22.3979L47.7422 20.0119L59.5294 8.22466ZM58.0547 17.3315C59.4095 17.3315 60.5117 18.4337 60.5117 19.7885C60.5117 21.1433 59.4095 22.2455 58.0547 22.2455C56.6999 22.2455 55.5977 21.1433 55.5977 19.7885C55.5977 19.7727 55.5998 19.7574 55.6 19.7416L58.0082 17.3339C58.0237 17.3336 58.039 17.3315 58.0547 17.3315ZM48.3984 23.4856L45.4504 24.6897L46.6545 21.7416L48.3984 23.4856ZM70.0078 46.1188H5.99219V9.69303C5.99219 9.14385 6.43897 8.69694 6.98828 8.69694H56.2401L54.7212 10.2158H20.8672C20.3169 10.2158 19.8711 10.6618 19.8711 11.2119C19.8711 11.762 20.3169 12.208 20.8672 12.208H52.7292L45.7033 19.2343C45.5047 19.4346 45.3494 19.6683 45.2425 19.93L43.0175 25.3774C42.8134 25.8777 42.9284 26.4479 43.3105 26.8298C43.567 27.0863 43.908 27.2223 44.2559 27.2223C44.4264 27.2223 44.5984 27.1896 44.7629 27.1225L50.2103 24.8977C50.4645 24.7938 50.6918 24.6435 50.8884 24.4529L53.9186 21.423C54.5714 23.0698 56.1784 24.2379 58.0548 24.2379C60.5081 24.2379 62.504 22.242 62.504 19.7886C62.504 17.9125 61.3362 16.3056 59.6897 15.6527L63.1348 12.2081H66.4968V42.6079H65.9688L62.359 36.3555C62.0841 35.879 61.4745 35.7158 60.9983 35.991C60.5219 36.266 60.3587 36.8752 60.6338 37.3516L63.6685 42.6079H49.7538L48.2614 40.023L55.2187 27.9725L58.3094 33.326C58.5846 33.8023 59.1938 33.9657 59.6701 33.6905C60.1465 33.4155 60.3097 32.8063 60.0347 32.3299L56.7373 26.6188C56.4203 26.0697 55.8527 25.742 55.2186 25.742C54.5846 25.742 54.0168 26.0697 53.6998 26.6188L47.1109 38.031L38.6569 23.3883C38.3399 22.8392 37.7722 22.5114 37.138 22.5114C36.5041 22.5114 35.9364 22.8392 35.6193 23.3883L33.3733 27.2785V16.6013C33.3733 15.3198 32.3306 14.2771 31.0491 14.2771H13.9609C12.6794 14.2771 11.6367 15.3198 11.6367 16.6013V38.3825C11.6367 39.298 12.3814 40.0427 13.2969 40.0427H26.0042L24.5231 42.6081H9.50335V12.208H16.2188C16.769 12.208 17.2148 11.762 17.2148 11.2119C17.2148 10.6618 16.769 10.2158 16.2188 10.2158H9.17132C8.25584 10.2158 7.51116 10.9605 7.51116 11.8759V42.9398C7.51116 43.8553 8.25584 44.6 9.17132 44.6H66.8288C67.7443 44.6 68.489 43.8553 68.489 42.9398V11.8759C68.489 10.9605 67.7443 10.2158 66.8288 10.2158H65.1272L66.6463 8.69694H69.0117C69.561 8.69694 70.0078 9.14385 70.0078 9.69303V46.1188ZM31.3816 22.1178V38.0502H13.6289V22.1178H31.3816ZM13.6289 20.1256V16.601C13.6289 16.418 13.7778 16.269 13.9609 16.269H31.0495C31.2327 16.269 31.3816 16.418 31.3816 16.601V20.1256H13.6289ZM28.3047 40.0424H31.7136C32.6291 40.0424 33.3737 39.2977 33.3737 38.3823V36.2723C33.6229 36.3918 33.9003 36.4565 34.1909 36.4565C34.8709 36.4565 35.4797 36.1048 35.8196 35.516L37.5148 32.5799C37.5661 32.4912 37.6445 32.4725 37.7009 32.4725C37.7576 32.4725 37.836 32.4912 37.8871 32.5799L38.9322 34.39C39.2722 34.9791 39.8812 35.3306 40.5613 35.3306C41.2413 35.3306 41.8502 34.9791 42.1901 34.3902L42.4496 33.9407L47.4535 42.6077H26.8236L28.3047 40.0424ZM33.3737 32.9379V31.2626L37.1386 24.7419L41.2993 31.9486L40.5612 33.227L39.6123 31.5837C39.2134 30.8927 38.4988 30.4802 37.7008 30.4802C36.9028 30.4802 36.1883 30.8927 35.7893 31.5837L34.1905 34.3529L33.3737 32.9379Z" fill="#FF6300"/>
</g>
</g>
<defs>
<filter id="filter0_d_133_976" x="0" y="0" width="76" height="76" filterUnits="userSpaceOnUse" color-interpolation-filters="sRGB">
<feFlood flood-opacity="0" result="BackgroundImageFix"/>
<feColorMatrix in="SourceAlpha" type="matrix" values="0 0 0 0 0 0 0 0 0 0 0 0 0 0 0 0 0 0 127 0" result="hardAlpha"/>
<feOffset dy="4"/>
<feGaussianBlur stdDeviation="2"/>
<feComposite in2="hardAlpha" operator="out"/>
<feColorMatrix type="matrix" values="0 0 0 0 0 0 0 0 0 0 0 0 0 0 0 0 0 0 0.25 0"/>
<feBlend mode="normal" in2="BackgroundImageFix" result="effect1_dropShadow_133_976"/>
<feBlend mode="normal" in="SourceGraphic" in2="effect1_dropShadow_133_976" result="shape"/>
</filter>
<clipPath id="clip0_133_976">
<rect width="68" height="68" fill="white" transform="translate(4)"/>
</clipPath>
</defs>
</svg>
