<svg width="206" height="190" viewBox="0 0 206 190" fill="none" xmlns="http://www.w3.org/2000/svg">
<path d="M101.79 13.5709L26.4382 59.911L101.79 102.22V13.5709Z" fill="#FF9950"/>
<path d="M0.649658 90.9383L26.4944 59.8944L102.247 102.405L76.4039 135.666L0.649658 90.9383Z" fill="#FEC9A8"/>
<path d="M181.976 59.5082L101.79 13.5721V104.638L181.976 59.5082Z" fill="#FDBA56"/>
<path d="M25.6326 139.695V105.696L76.3376 135.38L101.846 102.861L104.179 189.569L25.6326 139.695Z" fill="#FFBA50"/>
<path d="M103.596 189.661L101.797 102.579L103.139 103.841L117.153 118.592L131.872 134.234L182.585 105.505L183.185 146.545L103.596 189.661Z" fill="#FFCA7A"/>
<path d="M132.011 134.457L101.586 102.371L181.889 59.4707L205.75 92.55L132.011 134.457Z" fill="#FEC9A8"/>
<path fill-rule="evenodd" clip-rule="evenodd" d="M45.1897 65.6276C45.1897 64.1444 46.7474 63.1772 48.0767 63.835L72.7574 76.0481C73.439 76.3854 73.8704 77.0802 73.8704 77.8407V99.6131C73.8704 101.115 72.276 102.081 70.9444 101.386L46.2637 88.4942C45.6036 88.1494 45.1897 87.4663 45.1897 86.7214L45.1897 65.6276ZM61.396 79.0394C60.7419 79.9418 59.1656 79.9151 57.8753 78.9798C56.585 78.0445 56.0692 76.5548 56.7233 75.6524C57.3775 74.75 58.9537 74.7767 60.244 75.712C61.5343 76.6473 62.0501 78.137 61.396 79.0394ZM56.0497 89.4085C59.1897 91.6846 62.9024 91.9194 64.3423 89.9329C65.7822 87.9465 64.404 84.4911 61.264 82.215C58.124 79.9389 54.4113 79.7041 52.9714 81.6906C51.5315 83.677 52.9097 87.1324 56.0497 89.4085Z" fill="white"/>
<path fill-rule="evenodd" clip-rule="evenodd" d="M61.8259 0.829422C59.1611 -0.602448 55.9326 1.32783 55.9326 4.35298L55.9326 30.4805C55.9326 31.9205 56.7067 33.2494 57.9592 33.9598L86.3275 50.0496C88.994 51.562 92.3009 49.6359 92.3009 46.5703V19.5959C92.3009 18.1231 91.4915 16.7695 90.1942 16.0724L61.8259 0.829422ZM70.4694 33.4326C74.8622 36.6168 80.0562 36.9453 82.0706 34.1663C84.085 31.3873 82.1569 26.5533 77.7641 23.3691C73.3713 20.1849 68.1773 19.8564 66.1629 22.6354C64.1485 25.4143 66.0766 30.2484 70.4694 33.4326Z" fill="#E6E1FF"/>
<path fill-rule="evenodd" clip-rule="evenodd" d="M120.903 48.3674C120.872 46.5662 121.813 44.8879 123.365 43.9739L150.87 27.7802C154.203 25.8178 158.407 28.221 158.407 32.0889V57.6438C158.407 59.4845 157.396 61.1764 155.774 62.0479L128.675 76.614C125.376 78.3868 121.372 76.0385 121.308 72.2946L120.903 48.3674ZM137.301 46.042C138.106 47.4947 140.044 47.4518 141.631 45.9461C143.218 44.4404 143.852 42.0422 143.047 40.5895C142.243 39.1368 140.305 39.1797 138.718 40.6854C137.131 42.1911 136.497 44.5893 137.301 46.042ZM143.876 62.7344C140.014 66.3985 135.449 66.7765 133.678 63.5787C131.907 60.3809 133.602 54.8183 137.463 51.1542C141.325 47.4901 145.891 47.1121 147.661 50.3099C149.432 53.5077 147.737 59.0704 143.876 62.7344Z" fill="#E7E0FF"/>
<ellipse cx="59.0597" cy="77.3459" rx="2.88554" ry="2.01803" transform="rotate(35.937 59.0597 77.3459)" fill="#FF9849"/>
<ellipse cx="58.6569" cy="85.8118" rx="7.02201" ry="4.44227" transform="rotate(35.937 58.6569 85.8118)" fill="#FF9849"/>
<ellipse cx="3.96071" cy="3.00667" rx="3.96071" ry="3.00667" transform="matrix(-0.725399 0.688329 0.484419 0.874836 141.591 37.9591)" fill="#401DDC"/>
<ellipse cx="9.63844" cy="6.61854" rx="9.63844" ry="6.61854" transform="matrix(-0.725399 0.688329 0.484419 0.874836 144.455 44.5198)" fill="#401DDC"/>
<ellipse cx="74.6801" cy="16.5574" rx="4.03682" ry="2.82319" transform="rotate(35.937 74.6801 16.5574)" fill="#1BA1F0"/>
<ellipse cx="74.1168" cy="28.4009" rx="9.82366" ry="6.21464" transform="rotate(35.937 74.1168 28.4009)" fill="#1998E2"/>
</svg>
