<svg width="72" height="133" viewBox="0 0 72 133" fill="none" xmlns="http://www.w3.org/2000/svg">
<path d="M15.6499 131.434C15.6499 131.434 37.8759 115.239 58.2867 97.1341C82.6926 75.4882 56.9815 69.8183 50.7782 73.4906C50.7782 73.4906 75.8578 58.0293 70.3797 46.4556C66.5109 38.2875 54.9231 45.4404 54.9231 45.4404C54.9231 45.4404 76.3444 13.1284 62.9976 2.28438C49.6508 -8.5596 38.2642 21.7736 38.1987 39.3354C38.1987 39.3354 31.7428 10.9764 22.335 21.3338C14.312 30.1568 21.7549 55.6154 22.3023 63.9191C22.3023 63.9191 13.9237 36.9028 5.82111 42.2546C-2.28147 47.6017 -4.32113 94.94 15.6546 131.434H15.6499Z" fill="#FD6F00"/>
<path d="M58.0061 15.6592C58.0061 15.6592 24.4637 83.2914 15.6501 131.434" stroke="white" stroke-width="2" stroke-linecap="round" stroke-linejoin="round"/>
<path d="M28.3139 33.7637C28.3139 33.7637 34.8166 57.2761 33.8061 71.0626" stroke="white" stroke-width="2" stroke-linecap="round" stroke-linejoin="round"/>
<path d="M62.0528 51.7091C62.0528 51.7091 43.1436 65.8933 32.0704 76.0262" stroke="white" stroke-width="2" stroke-linecap="round" stroke-linejoin="round"/>
<path d="M10.2233 59.3206C10.2233 59.3206 22.162 87.8667 21.7363 106.458C21.7363 106.458 40.9307 86.4445 58.2633 83.2914" stroke="white" stroke-width="2" stroke-linecap="round" stroke-linejoin="round"/>
</svg>
