<svg width="90" height="156" viewBox="0 0 90 156" fill="none" xmlns="http://www.w3.org/2000/svg">
<path d="M70.4719 155.191C70.4719 155.191 80.5908 124.637 87.6829 93.5043C96.1597 56.2755 67.8334 68.3966 64.4324 76.1156C64.4324 76.1156 77.7698 44.3135 64.671 37.0343C55.4269 31.8976 49.2705 46.6011 49.2705 46.6011C49.2705 46.6011 47.6425 1.26038 27.5545 0.0300205C7.46178 -1.19566 17.2906 35.425 29.1965 52.1821C29.1965 52.1821 3.73796 29.5913 1.83395 45.8573C0.210629 59.7186 24.6353 78.8757 30.8105 86.4075C30.8105 86.4075 4.43033 66.4084 0.365008 77.0185C-3.70031 87.6286 26.6095 134.069 70.4766 155.186L70.4719 155.191Z" fill="#FF6300"/>
<path d="M34.4501 29.4836C34.4501 29.4836 45.6168 98.3087 64.8815 139.201" stroke="white" stroke-width="2" stroke-linecap="round" stroke-linejoin="round"/>
<path d="M21.8846 59.0403C21.8846 59.0403 39.409 73.2011 46.0614 84.1012" stroke="white" stroke-width="2" stroke-linecap="round" stroke-linejoin="round"/>
<path d="M56.8678 54.3809C56.8678 54.3809 50.2903 75.1987 47.4226 88.7607" stroke="white" stroke-width="2" stroke-linecap="round" stroke-linejoin="round"/>
<path d="M22.0389 87.956C22.0389 87.956 46.3513 102.973 56.0258 117.166C56.0258 117.166 59.6794 91.8202 71.0052 80.1342" stroke="white" stroke-width="2" stroke-linecap="round" stroke-linejoin="round"/>
</svg>
