<svg width="47" height="89" viewBox="0 0 47 89" fill="none" xmlns="http://www.w3.org/2000/svg">
<path d="M14.6318 88.9986C14.6318 88.9986 28.2032 76.9477 40.4553 63.7599C55.1073 47.9898 37.8636 45.8987 34.0228 48.7056C34.0228 48.7056 49.5122 36.9541 45.1802 29.7029C42.1207 24.585 34.9631 30.0211 34.9631 30.0211C34.9631 30.0211 46.9766 7.43489 37.5221 1.16148C28.0628 -5.11193 22.5145 15.5328 23.5905 27.0738C23.5905 27.0738 17.5463 8.85706 12.0261 16.2579C7.31985 22.5641 13.8272 38.8113 14.7113 44.2333C14.7113 44.2333 7.48828 27.0224 2.50604 31.0503C-2.4762 35.0781 -0.8061 66.3002 14.6365 88.9986H14.6318Z" fill="#FF9654"/>
<path d="M32.5679 17.4836C32.5679 17.4836 18.5755 54.2212 16.4236 79.6189" stroke="white" stroke-width="2" stroke-linecap="round" stroke-linejoin="round"/>
<path d="M18.0844 28.3556C18.0844 28.3556 22.6363 40.2147 22.8 47.4144" stroke="white" stroke-width="2" stroke-linecap="round" stroke-linejoin="round"/>
<path d="M36.4743 35.9623C36.4743 35.9623 27.3846 44.2613 22.1544 50.0716" stroke="white" stroke-width="2" stroke-linecap="round" stroke-linejoin="round"/>
<path d="M9.99579 42.5071C9.99579 42.5071 17.6165 56.7053 18.3276 66.361C18.3276 66.361 27.2722 55.0258 36.0999 52.523" stroke="white" stroke-width="2" stroke-linecap="round" stroke-linejoin="round"/>
</svg>
